<svg width="1440" height="839" viewBox="0 0 1440 839" fill="none" xmlns="http://www.w3.org/2000/svg">
<path d="M1326.14 374C1393.26 454 1428.31 557.5 1439.64 617V0C1406.97 1.16669 1335.83 40.0145 1297.26 105.5C1244.26 195.5 1265.29 301.478 1326.14 374Z" fill="#2F5FAC"/>
<circle cx="1363.5" cy="606.5" r="16" stroke="#F47E20" stroke-width="3"/>
<path d="M93 641.59C93 518.894 17.6667 443.407 -20 421V839C17.6667 824.32 93 764.285 93 641.59Z" fill="#FBAA1C"/>
<circle cx="131.703" cy="213.703" r="36.5" transform="rotate(-75 131.703 213.703)" fill="#C6D6EF"/>
<path d="M200.292 284.388C200.506 283.588 200.031 282.766 199.231 282.551C198.431 282.337 197.608 282.812 197.394 283.612L200.292 284.388ZM192.389 302.292C192.174 303.092 192.649 303.915 193.449 304.129C194.25 304.344 195.072 303.869 195.286 303.069L192.389 302.292ZM197.394 283.612L192.389 302.292L195.286 303.069L200.292 284.388L197.394 283.612Z" fill="#2FAC61"/>
<path d="M187.388 289.389C186.588 289.174 185.765 289.649 185.551 290.449C185.337 291.249 185.811 292.072 186.612 292.286L187.388 289.389ZM205.292 297.292C206.092 297.506 206.915 297.031 207.129 296.231C207.344 295.431 206.869 294.608 206.069 294.394L205.292 297.292ZM186.612 292.286L205.292 297.292L206.069 294.394L187.388 289.389L186.612 292.286Z" fill="#2FAC61"/>
</svg>
