<svg width="23" height="23" viewBox="0 0 23 23" fill="none" xmlns="http://www.w3.org/2000/svg">
<path d="M15.2919 2.38809C15.5063 1.58789 15.0314 0.765384 14.2312 0.550972C13.431 0.336559 12.6085 0.811433 12.3941 1.61163L15.2919 2.38809ZM7.38865 20.2921C7.17424 21.0923 7.64911 21.9148 8.44931 22.1293C9.24951 22.3437 10.072 21.8688 10.2864 21.0686L7.38865 20.2921ZM12.3941 1.61163L7.38865 20.2921L10.2864 21.0686L15.2919 2.38809L12.3941 1.61163Z" fill="#9B2FAC"/>
<path d="M2.38809 7.38844C1.58789 7.17403 0.765383 7.6489 0.550971 8.4491C0.336558 9.2493 0.811432 10.0718 1.61163 10.2862L2.38809 7.38844ZM20.2921 15.2916C21.0923 15.5061 21.9148 15.0312 22.1293 14.231C22.3437 13.4308 21.8688 12.6083 21.0686 12.3939L20.2921 15.2916ZM1.61163 10.2862L20.2921 15.2916L21.0686 12.3939L2.38809 7.38844L1.61163 10.2862Z" fill="#9B2FAC"/>
</svg>
