<svg width="1397" height="190" viewBox="0 0 1397 190" fill="none" xmlns="http://www.w3.org/2000/svg">
<circle cx="64.5" cy="5.5" r="4" stroke="#2F5FAC" stroke-width="3"/>
<circle cx="1381" cy="153" r="37" fill="#C6DCFF"/>
<circle cx="13.1741" cy="72.1741" r="13.1741" fill="#C6DCFF"/>
<path d="M1231.36 45.9099L1257.15 41.9774L1247.66 66.28L1231.36 45.9099Z" stroke="#FBAA1C" stroke-width="3"/>
<path d="M250.292 132.388C250.506 131.588 250.031 130.766 249.231 130.551C248.431 130.337 247.608 130.812 247.394 131.612L250.292 132.388ZM242.389 150.292C242.174 151.092 242.649 151.915 243.449 152.129C244.25 152.344 245.072 151.869 245.286 151.069L242.389 150.292ZM247.394 131.612L242.389 150.292L245.286 151.069L250.292 132.388L247.394 131.612Z" fill="#2FAC61"/>
<path d="M237.389 137.389C236.588 137.174 235.766 137.649 235.551 138.449C235.337 139.249 235.812 140.072 236.612 140.286L237.389 137.389ZM255.293 145.292C256.093 145.506 256.915 145.031 257.13 144.231C257.344 143.431 256.869 142.608 256.069 142.394L255.293 145.292ZM236.612 140.286L255.293 145.292L256.069 142.394L237.389 137.389L236.612 140.286Z" fill="#2FAC61"/>
</svg>
