<svg width="12" height="15" viewBox="0 0 12 15" fill="none" xmlns="http://www.w3.org/2000/svg">
<path d="M5.56667 2.05733C5.52333 2.19733 5.5 2.346 5.5 2.5C5.5 2.776 5.724 3 6 3H9C9.13261 3 9.25979 2.94732 9.35355 2.85355C9.44732 2.75979 9.5 2.63261 9.5 2.5C9.50005 2.34994 9.47757 2.20072 9.43333 2.05733M5.56667 2.05733C5.66135 1.75113 5.85158 1.48329 6.10951 1.29303C6.36743 1.10276 6.67949 1.00008 7 1H8C8.67467 1 9.24467 1.44533 9.43333 2.05733M5.56667 2.05733C5.316 2.07267 5.06667 2.09067 4.81733 2.11067C4.06333 2.17333 3.5 2.81533 3.5 3.572V5M9.43333 2.05733C9.684 2.07267 9.93333 2.09067 10.1827 2.11067C10.9367 2.17333 11.5 2.81533 11.5 3.572V10.5C11.5 10.8978 11.342 11.2794 11.0607 11.5607C10.7794 11.842 10.3978 12 10 12H8.5M3.5 5H1.25C0.836 5 0.5 5.336 0.5 5.75V13.25C0.5 13.664 0.836 14 1.25 14H7.75C8.164 14 8.5 13.664 8.5 13.25V12M3.5 5H7.75C8.164 5 8.5 5.336 8.5 5.75V12M3 10L4 11L6 8.5" stroke="#8DADE0" stroke-linecap="round" stroke-linejoin="round"/>
</svg>
