<svg width="37" height="57" viewBox="0 0 37 57" fill="none" xmlns="http://www.w3.org/2000/svg">
<path d="M0.881841 38.9765L0.881841 38.9778C1.63528 49.2446 9.15919 56.6975 18.771 56.6975C28.6364 56.6975 36.6626 48.7078 36.6626 38.8858C36.6626 29.4107 29.1928 21.6392 19.8075 21.1023C19.645 19.3571 19.7682 14.6055 24.345 7.9884C24.6909 7.48953 24.6282 6.81672 24.1986 6.38901C22.3336 4.53221 21.1789 3.36053 20.3688 2.54063C19.304 1.45968 18.8177 0.966962 18.1063 0.324765C17.8663 0.10903 17.5622 -2.94737e-05 17.2593 -2.94534e-05C16.9638 -2.94335e-05 16.6696 0.102873 16.4321 0.308823C8.45881 7.21632 -0.398385 21.4884 0.881841 38.9765ZM17.2471 2.96959C17.593 3.30907 17.988 3.70854 18.5704 4.29928C19.272 5.01025 20.2309 5.98326 21.6849 7.43444C16.1317 15.9549 17.1792 22.0215 17.6372 22.8917C17.8552 23.3035 18.3032 23.583 18.771 23.583C27.2466 23.583 34.1415 30.4476 34.1415 38.8858C34.1415 47.3229 27.2466 54.1875 18.771 54.1875C10.5171 54.1875 4.05051 47.7138 3.39565 38.7939L3.39565 38.7952C1.95659 19.1267 13.6992 6.35223 17.2471 2.96959Z" fill="#E0E5EF"/>
</svg>
