<svg width="87" height="73" viewBox="0 0 87 73" fill="none" xmlns="http://www.w3.org/2000/svg">
<path d="M80.3588 0H5.92118C4.35132 0.00176199 2.84627 0.626164 1.73622 1.73622C0.626164 2.84627 0.00176199 4.35132 0 5.92118V66.8247C0.00176199 68.3946 0.626164 69.8996 1.73622 71.0097C2.84627 72.1197 4.35132 72.7441 5.92118 72.7459H80.3588C81.9287 72.7441 83.4337 72.1197 84.5438 71.0097C85.6538 69.8996 86.2782 68.3946 86.28 66.8247V5.92118C86.2782 4.35132 85.6538 2.84627 84.5438 1.73622C83.4337 0.626164 81.9287 0.00176199 80.3588 0V0ZM5.92118 5.07529H80.3588C80.5831 5.07555 80.7981 5.16475 80.9567 5.32333C81.1152 5.48191 81.2044 5.69691 81.2047 5.92118V53.9315L67.628 40.3547C66.5167 39.2461 65.0111 38.6235 63.4414 38.6235C61.8717 38.6235 60.366 39.2461 59.2547 40.3547L50.5055 49.1039C50.3468 49.2624 50.1316 49.3514 49.9072 49.3514C49.6829 49.3514 49.4677 49.2624 49.309 49.1039L30.4092 30.204C29.298 29.0953 27.7923 28.4726 26.2226 28.4726C24.6528 28.4726 23.1471 29.0953 22.0359 30.204L5.07529 47.1645V5.92118C5.07555 5.69691 5.16475 5.48191 5.32333 5.32333C5.48191 5.16475 5.69691 5.07555 5.92118 5.07529V5.07529ZM80.3588 67.6706H5.92118C5.69692 67.6703 5.48194 67.5811 5.32337 67.4225C5.1648 67.2639 5.07559 67.049 5.07529 66.8247V54.3417L25.6243 33.7928C25.783 33.6343 25.9982 33.5452 26.2226 33.5452C26.4469 33.5452 26.6621 33.6343 26.8208 33.7928L45.7206 52.6925C46.8318 53.8013 48.3375 54.4241 49.9073 54.4241C51.4771 54.4241 52.9828 53.8013 54.0939 52.6925L62.8431 43.9435C63.0018 43.7849 63.217 43.6959 63.4414 43.6959C63.6657 43.6959 63.8809 43.7849 64.0397 43.9435L81.2047 61.1084V66.8247C81.2044 67.049 81.1152 67.2639 80.9566 67.4225C80.7981 67.5811 80.5831 67.6703 80.3588 67.6706V67.6706ZM51.9916 27.5212C51.4999 27.0293 51.137 26.4238 50.9351 25.7582C50.7333 25.0926 50.6987 24.3875 50.8344 23.7053C50.9702 23.0232 51.272 22.385 51.7133 21.8474C52.1546 21.3098 52.7216 20.8893 53.3642 20.6231C54.0068 20.357 54.7051 20.2534 55.3973 20.3216C56.0895 20.3898 56.7542 20.6276 57.3325 21.0141C57.9108 21.4005 58.3849 21.9235 58.7127 22.5369C59.0406 23.1503 59.2122 23.8351 59.2122 24.5307V24.5317C59.2119 25.3681 58.9637 26.1857 58.4988 26.8811C58.0339 27.5765 57.3733 28.1184 56.6005 28.4384C55.8277 28.7583 54.9773 28.842 54.157 28.6787C53.3366 28.5155 52.5831 28.1127 51.9916 27.5212V27.5212Z" fill="#5483D0"/>
</svg>
