<svg width="87" height="76" viewBox="0 0 87 76" fill="none" xmlns="http://www.w3.org/2000/svg">
<path d="M73.6208 12.4341C69.6247 8.4409 64.8724 5.28464 59.6418 3.15C54.4113 1.01537 48.8076 -0.0547817 43.1586 0.00215846C43.0487 0.00131858 42.9408 0.00092816 42.8313 0.00092816C31.4715 0.00164428 20.5771 4.51484 12.5448 12.5477C4.51242 20.5806 -4.56845e-05 31.4753 3.46886e-10 42.8351V66.3519C0.00276649 68.8013 0.97702 71.1496 2.70902 72.8816C4.44102 74.6136 6.78933 75.5879 9.23874 75.5907H15.9578C18.4073 75.5879 20.7556 74.6136 22.4876 72.8816C24.2196 71.1496 25.1938 68.8013 25.1966 66.3519V49.5542C25.1938 47.1048 24.2196 44.7565 22.4876 43.0245C20.7556 41.2925 18.4073 40.3182 15.9578 40.3155H5.12133C5.76185 30.7432 10.0182 21.7726 17.0276 15.2222C24.037 8.67189 33.2749 5.03192 42.8686 5.04024C42.965 5.04024 43.0616 5.04059 43.1586 5.04127C43.2549 5.04066 43.3505 5.04024 43.4473 5.04024C53.0347 5.04117 62.2635 8.68525 69.2652 15.2347C76.267 21.7841 80.5183 30.7494 81.1585 40.3155H70.322C67.8726 40.3182 65.5243 41.2925 63.7923 43.0245C62.0603 44.7565 61.086 47.1048 61.0832 49.5542V66.3519C61.086 68.8013 62.0603 71.1496 63.7923 72.8816C65.5243 74.6136 67.8726 75.5879 70.322 75.5907H77.0411C79.4905 75.5879 81.8388 74.6136 83.5708 72.8816C85.3028 71.1496 86.2771 68.8013 86.2798 66.3519V42.8351C86.2962 37.1808 85.1851 31.5799 83.0115 26.36C80.8379 21.14 77.6455 16.4058 73.6208 12.4341V12.4341ZM15.9578 45.3548C17.0712 45.3561 18.1386 45.7989 18.9258 46.5862C19.7131 47.3735 20.156 48.4408 20.1573 49.5542V66.3519C20.156 67.4653 19.7131 68.5327 18.9258 69.3199C18.1386 70.1072 17.0712 70.55 15.9578 70.5513H9.23874C8.12539 70.55 7.05801 70.1072 6.27074 69.3199C5.48348 68.5327 5.04062 67.4653 5.03932 66.3519V45.3548H15.9578ZM81.2405 66.3519C81.2392 67.4653 80.7963 68.5327 80.0091 69.3199C79.2218 70.1072 78.1544 70.55 77.0411 70.5513H70.322C69.2086 70.55 68.1413 70.1072 67.354 69.3199C66.5667 68.5327 66.1239 67.4653 66.1226 66.3519V49.5542C66.1239 48.4408 66.5667 47.3735 67.354 46.5862C68.1413 45.7989 69.2086 45.3561 70.322 45.3548H81.2405V66.3519Z" fill="#5483D0"/>
</svg>
