<svg width="86" height="52" viewBox="0 0 86 52" fill="none" xmlns="http://www.w3.org/2000/svg">
<path d="M84.5723 7.17965C84.138 6.94012 83.6451 6.81319 83.143 6.81156C82.6409 6.80992 82.1472 6.93365 81.7112 7.17034L65.9333 15.7394V13.623C65.929 10.0112 64.4175 6.54854 61.7304 3.99464C59.0433 1.44073 55.4001 0.00413198 51.6 0H5.73333C4.21329 0.00165225 2.75601 0.576292 1.68117 1.59785C0.606342 2.61942 0.00173841 4.00448 0 5.44918V38.1443C0.00434745 41.756 1.51586 45.2187 4.20294 47.7726C6.89002 50.3265 10.5332 51.7631 14.3333 51.7672H60.2C61.72 51.7656 63.1773 51.1909 64.2522 50.1694C65.327 49.1478 65.9316 47.7628 65.9333 46.318V36.0278L81.7112 44.5969C82.1472 44.8336 82.6409 44.9573 83.143 44.9557C83.6451 44.9541 84.138 44.8271 84.5722 44.5876C85.0065 44.3481 85.3669 44.0043 85.6175 43.5908C85.8681 43.1772 86 42.7084 86 42.2312V9.53607C86.0001 9.05884 85.8682 8.58998 85.6176 8.17643C85.3671 7.76287 85.0066 7.41914 84.5723 7.17965ZM60.2 46.318H14.3333C12.0533 46.3156 9.86734 45.4536 8.2551 43.9213C6.64285 42.3889 5.73594 40.3113 5.73333 38.1443V5.44918H51.6C53.8801 5.45166 56.066 6.31362 57.6782 7.84596C59.2905 9.37831 60.1974 11.4559 60.2 13.623L60.2007 20.4748C60.2009 20.4843 60.2005 20.4938 60.2007 20.5033L60.2019 31.2484C60.201 31.2768 60.2019 31.3052 60.2019 31.3336L60.2035 46.318H60.2ZM80.2667 37.5363L65.9333 29.7516V22.0156L80.2667 14.2309V37.5363Z" fill="#5483D0"/>
</svg>
