<svg width="23" height="23" viewBox="0 0 23 23" fill="none" xmlns="http://www.w3.org/2000/svg">
<path d="M15.2919 2.38809C15.5063 1.58789 15.0314 0.765384 14.2312 0.550972C13.431 0.336559 12.6085 0.811433 12.3941 1.61163L15.2919 2.38809ZM7.38865 20.2921C7.17424 21.0923 7.64911 21.9148 8.44931 22.1293C9.24951 22.3437 10.072 21.8688 10.2864 21.0686L7.38865 20.2921ZM12.3941 1.61163L7.38865 20.2921L10.2864 21.0686L15.2919 2.38809L12.3941 1.61163Z" fill="#2FAC61"/>
<path d="M2.38833 7.38856C1.58813 7.17415 0.765627 7.64902 0.551215 8.44922C0.336802 9.24942 0.811676 10.0719 1.61188 10.2863L2.38833 7.38856ZM20.2924 15.2918C21.0926 15.5062 21.9151 15.0313 22.1295 14.2311C22.3439 13.4309 21.869 12.6084 21.0688 12.394L20.2924 15.2918ZM1.61188 10.2863L20.2924 15.2918L21.0688 12.394L2.38833 7.38856L1.61188 10.2863Z" fill="#2FAC61"/>
</svg>
