<svg width="18" height="22" viewBox="0 0 18 22" fill="none" xmlns="http://www.w3.org/2000/svg">
<path fill-rule="evenodd" clip-rule="evenodd" d="M13.5 3.47801V3.70501C14.799 3.8238 16.0927 3.9946 17.378 4.21701C17.4751 4.23382 17.5678 4.26958 17.6511 4.32225C17.7343 4.37491 17.8063 4.44346 17.8631 4.52397C17.9198 4.60448 17.9601 4.69537 17.9817 4.79146C18.0033 4.88755 18.0058 4.98696 17.989 5.08401C17.9722 5.18106 17.9364 5.27384 17.8838 5.35707C17.8311 5.4403 17.7626 5.51233 17.682 5.56907C17.6015 5.62581 17.5106 5.66613 17.4146 5.68774C17.3185 5.70935 17.2191 5.71182 17.122 5.69501L16.913 5.66001L15.908 18.73C15.8501 19.4836 15.5098 20.1875 14.9553 20.7011C14.4008 21.2146 13.6728 21.5 12.917 21.5H5.08401C4.3282 21.5 3.60026 21.2146 3.04573 20.7011C2.4912 20.1875 2.15095 19.4836 2.09301 18.73L1.08701 5.66001L0.878007 5.69501C0.78096 5.71182 0.681552 5.70935 0.58546 5.68774C0.489368 5.66613 0.398473 5.62581 0.317964 5.56907C0.15537 5.45449 0.0449542 5.28 0.0110065 5.08401C-0.0229412 4.88801 0.0223602 4.68656 0.136945 4.52397C0.25153 4.36137 0.426012 4.25096 0.622007 4.21701C1.90727 3.99433 3.20099 3.82353 4.50001 3.70501V3.47801C4.50001 1.91401 5.71301 0.578009 7.31601 0.527009C8.43872 0.491078 9.56229 0.491078 10.685 0.527009C12.288 0.578009 13.5 1.91401 13.5 3.47801ZM7.36401 2.02601C8.45473 1.99113 9.54629 1.99113 10.637 2.02601C11.39 2.05001 12 2.68401 12 3.47801V3.59101C10.0018 3.46966 7.99817 3.46966 6.00001 3.59101V3.47801C6.00001 2.68401 6.60901 2.05001 7.36401 2.02601ZM7.00901 7.97101C7.0052 7.87252 6.98203 7.77574 6.94082 7.6862C6.89961 7.59667 6.84117 7.51612 6.76883 7.44917C6.69649 7.38222 6.61168 7.33017 6.51923 7.296C6.42678 7.26183 6.3285 7.2462 6.23001 7.25001C6.13152 7.25382 6.03474 7.27699 5.9452 7.3182C5.85567 7.35941 5.77512 7.41785 5.70817 7.49019C5.64122 7.56252 5.58917 7.64734 5.555 7.73979C5.52083 7.83224 5.5052 7.93052 5.50901 8.02901L5.85601 17.029C5.8637 17.2278 5.95004 17.4154 6.09604 17.5505C6.16833 17.6174 6.25309 17.6694 6.34548 17.7036C6.43787 17.7377 6.53608 17.7533 6.63451 17.7495C6.73293 17.7457 6.82964 17.7225 6.91912 17.6814C7.0086 17.6402 7.08909 17.5818 7.15599 17.5095C7.22289 17.4372 7.27491 17.3524 7.30905 17.26C7.3432 17.1676 7.35881 17.0694 7.35501 16.971L7.00901 7.97101ZM12.489 8.02901C12.4963 7.92863 12.4834 7.82779 12.4509 7.73252C12.4185 7.63725 12.3672 7.54948 12.3001 7.47445C12.233 7.39942 12.1515 7.33866 12.0604 7.2958C11.9694 7.25293 11.8706 7.22883 11.77 7.22494C11.6694 7.22104 11.5691 7.23743 11.475 7.27313C11.3809 7.30883 11.2949 7.3631 11.2222 7.43272C11.1496 7.50234 11.0916 7.58587 11.0519 7.67835C11.0122 7.77083 10.9915 7.87036 10.991 7.97101L10.644 16.971C10.6363 17.1699 10.708 17.3637 10.8432 17.5098C10.9784 17.6559 11.1661 17.7423 11.365 17.75C11.5639 17.7577 11.7577 17.6861 11.9038 17.5508C12.0499 17.4156 12.1363 17.2279 12.144 17.029L12.489 8.02901Z" fill="#C8CCDB"/>
</svg>
