
<svg width="1440" height="700" viewBox="0 0 1440 700" fill="none" xmlns="http://www.w3.org/2000/svg">
<g clip-path="url(#clip0_11_885)">
<rect width="1440" height="700" fill="#E5ECF8"/>
<path d="M408 858C408 858 418.085 555.849 823.528 481.5C1228.97 407.151 1352.36 85.6782 1426.1 -51.9502C1499.84 -189.579 1568.82 -311.313 1827 -254.858V857.987H408V858Z" fill="url(#paint0_linear_11_885)"/>
<path d="M1233.35 593.021L1259.16 589.063L1249.66 613.519L1233.35 593.021Z" stroke="#FBAA1C" stroke-width="3"/>
<circle cx="17" cy="128" r="52" fill="#C6D6EF"/>
<path d="M819.292 161.388C819.506 160.588 819.031 159.766 818.231 159.551C817.431 159.337 816.608 159.812 816.394 160.612L819.292 161.388ZM811.389 179.292C811.174 180.092 811.649 180.915 812.449 181.129C813.25 181.344 814.072 180.869 814.286 180.069L811.389 179.292ZM816.394 160.612L811.389 179.292L814.286 180.069L819.292 161.388L816.394 160.612Z" fill="#2FAC61"/>
<path d="M806.388 166.389C805.588 166.174 804.765 166.649 804.551 167.449C804.337 168.249 804.811 169.072 805.612 169.286L806.388 166.389ZM824.292 174.292C825.092 174.506 825.915 174.031 826.129 173.231C826.344 172.431 825.869 171.608 825.069 171.394L824.292 174.292ZM805.612 169.286L824.292 174.292L825.069 171.394L806.388 166.389L805.612 169.286Z" fill="#2FAC61"/>
<path d="M1387.5 420.543C1387.5 423.889 1384.81 426.586 1381.5 426.586C1378.19 426.586 1375.5 423.889 1375.5 420.543C1375.5 417.197 1378.19 414.5 1381.5 414.5C1384.81 414.5 1387.5 417.197 1387.5 420.543Z" stroke="#2FAC8E" stroke-width="3"/>
<circle cx="602.174" cy="556.174" r="11.6741" stroke="url(#paint1_linear_11_885)" stroke-width="3"/>
<g clip-path="url(#clip1_11_885)">
<path d="M1267.29 539.151H1231.12V539.424H1267.29V539.151Z" fill="#EBEBEB"/>
<path d="M1137.69 542.121H1128.2V542.394H1137.69V542.121Z" fill="#EBEBEB"/>
<path d="M1230.03 529.017H1209.08V529.29H1230.03V529.017Z" fill="#EBEBEB"/>
<path d="M880.45 530.852H833.286V531.125H880.45V530.852Z" fill="#EBEBEB"/>
<path d="M897.092 530.852H890.18V531.125H897.092V530.852Z" fill="#EBEBEB"/>
<path d="M1021.86 535.46H919.565V535.733H1021.86V535.46Z" fill="#EBEBEB"/>
<path d="M1036.33 472.878H825.468C823.814 472.878 822.228 472.221 821.059 471.051C819.889 469.882 819.232 468.296 819.232 466.642V170.241C819.247 168.596 819.91 167.025 821.078 165.867C822.246 164.709 823.823 164.06 825.468 164.06H1036.33C1037.15 164.06 1037.96 164.221 1038.72 164.535C1039.48 164.848 1040.16 165.307 1040.74 165.886C1041.32 166.465 1041.78 167.153 1042.09 167.909C1042.41 168.666 1042.57 169.476 1042.57 170.295V466.642C1042.57 467.461 1042.41 468.272 1042.09 469.028C1041.78 469.785 1041.32 470.472 1040.74 471.051C1040.16 471.63 1039.48 472.09 1038.72 472.403C1037.96 472.716 1037.15 472.878 1036.33 472.878ZM825.468 164.278C823.887 164.281 822.372 164.91 821.255 166.028C820.137 167.145 819.508 168.66 819.505 170.241V466.642C819.508 468.223 820.137 469.738 821.255 470.855C822.372 471.973 823.887 472.602 825.468 472.605H1036.33C1037.91 472.602 1039.43 471.973 1040.55 470.855C1041.66 469.738 1042.29 468.223 1042.3 466.642V170.241C1042.29 168.66 1041.66 167.145 1040.55 166.028C1039.43 164.91 1037.91 164.281 1036.33 164.278H825.468Z" fill="#EBEBEB"/>
<path d="M1272.53 472.878H1061.67C1060.01 472.878 1058.43 472.221 1057.26 471.051C1056.09 469.882 1055.43 468.296 1055.43 466.642V170.241C1055.45 168.596 1056.11 167.025 1057.28 165.867C1058.44 164.709 1060.02 164.06 1061.67 164.06H1272.53C1274.19 164.06 1275.77 164.717 1276.94 165.886C1278.11 167.056 1278.77 168.642 1278.77 170.295V466.642C1278.77 468.296 1278.11 469.882 1276.94 471.051C1275.77 472.221 1274.19 472.878 1272.53 472.878ZM1061.67 164.278C1060.09 164.281 1058.57 164.91 1057.45 166.028C1056.34 167.145 1055.71 168.66 1055.7 170.241V466.642C1055.71 468.223 1056.34 469.738 1057.45 470.855C1058.57 471.973 1060.09 472.602 1061.67 472.605H1272.53C1274.11 472.602 1275.63 471.973 1276.74 470.855C1277.86 469.738 1278.49 468.223 1278.49 466.642V170.241C1278.49 168.66 1277.86 167.145 1276.74 166.028C1275.63 164.91 1274.11 164.281 1272.53 164.278H1061.67Z" fill="#EBEBEB"/>
<path d="M1279 523H776V522H1279V523Z" fill="#EBEBEB"/>
<path d="M1233.46 327.849H1155.18L1146.19 225.059H1224.47L1233.46 327.849Z" fill="#F5F5F5"/>
<path d="M1205.21 238.316H1165.76C1165.51 238.314 1165.26 238.22 1165.08 238.05C1164.89 237.881 1164.78 237.649 1164.75 237.399C1164.74 237.281 1164.75 237.162 1164.79 237.05C1164.83 236.938 1164.89 236.834 1164.97 236.747C1165.04 236.659 1165.14 236.589 1165.25 236.542C1165.36 236.494 1165.47 236.47 1165.59 236.471H1205.05C1205.3 236.475 1205.54 236.572 1205.73 236.743C1205.91 236.914 1206.03 237.148 1206.05 237.399C1206.07 237.516 1206.05 237.635 1206.02 237.748C1205.98 237.86 1205.92 237.964 1205.84 238.051C1205.76 238.138 1205.66 238.207 1205.56 238.253C1205.45 238.298 1205.33 238.32 1205.21 238.316Z" fill="#E0E0E0"/>
<path d="M1218.47 288.603H1170.21C1169.96 288.598 1169.72 288.501 1169.53 288.33C1169.35 288.159 1169.23 287.926 1169.21 287.674C1169.19 287.557 1169.21 287.438 1169.24 287.326C1169.28 287.213 1169.34 287.11 1169.42 287.023C1169.5 286.935 1169.6 286.865 1169.7 286.817C1169.81 286.77 1169.93 286.746 1170.05 286.746H1218.37C1218.62 286.763 1218.85 286.865 1219.03 287.034C1219.22 287.202 1219.34 287.428 1219.37 287.674C1219.39 287.798 1219.37 287.922 1219.33 288.04C1219.29 288.157 1219.23 288.263 1219.14 288.352C1219.05 288.441 1218.95 288.509 1218.83 288.553C1218.72 288.596 1218.59 288.613 1218.47 288.603Z" fill="#E0E0E0"/>
<path d="M1218.94 294.008H1163.77C1163.52 294.004 1163.27 293.907 1163.09 293.736C1162.9 293.564 1162.79 293.331 1162.76 293.08C1162.75 292.962 1162.76 292.843 1162.8 292.731C1162.84 292.619 1162.9 292.516 1162.98 292.428C1163.06 292.34 1163.15 292.27 1163.26 292.223C1163.37 292.175 1163.49 292.151 1163.61 292.152H1218.78C1219.03 292.169 1219.27 292.27 1219.45 292.439C1219.63 292.608 1219.75 292.834 1219.79 293.08C1219.8 293.198 1219.79 293.318 1219.75 293.431C1219.71 293.544 1219.65 293.648 1219.57 293.736C1219.49 293.824 1219.39 293.893 1219.28 293.94C1219.17 293.987 1219.06 294.01 1218.94 294.008Z" fill="#E0E0E0"/>
<path d="M1219.42 299.348H1164.24C1163.99 299.344 1163.74 299.247 1163.56 299.075C1163.37 298.904 1163.26 298.671 1163.23 298.42C1163.22 298.302 1163.23 298.183 1163.27 298.071C1163.31 297.959 1163.37 297.855 1163.45 297.768C1163.53 297.68 1163.62 297.61 1163.73 297.563C1163.84 297.515 1163.96 297.491 1164.07 297.491H1219.25C1219.5 297.509 1219.74 297.61 1219.92 297.779C1220.1 297.948 1220.22 298.174 1220.26 298.42C1220.27 298.537 1220.26 298.656 1220.22 298.768C1220.18 298.881 1220.12 298.984 1220.05 299.072C1219.97 299.159 1219.87 299.229 1219.76 299.277C1219.65 299.324 1219.54 299.349 1219.42 299.348Z" fill="#E0E0E0"/>
<path d="M1219.89 304.721H1164.75C1164.49 304.725 1164.24 304.639 1164.04 304.477C1163.84 304.315 1163.71 304.088 1163.66 303.836C1163.65 303.718 1163.66 303.6 1163.7 303.487C1163.73 303.375 1163.79 303.272 1163.87 303.184C1163.95 303.097 1164.05 303.027 1164.16 302.979C1164.27 302.931 1164.38 302.907 1164.5 302.908H1219.68C1219.93 302.912 1220.17 303.009 1220.36 303.18C1220.54 303.351 1220.66 303.585 1220.68 303.836C1220.69 303.946 1220.67 304.057 1220.64 304.161C1220.6 304.266 1220.54 304.361 1220.47 304.444C1220.39 304.526 1220.31 304.593 1220.21 304.64C1220.11 304.688 1220 304.715 1219.89 304.721Z" fill="#E0E0E0"/>
<path d="M1220.36 310.093H1172.04C1171.79 310.076 1171.55 309.975 1171.37 309.806C1171.19 309.637 1171.07 309.411 1171.03 309.165C1171.02 309.047 1171.03 308.929 1171.07 308.816C1171.1 308.704 1171.16 308.601 1171.24 308.513C1171.32 308.425 1171.42 308.356 1171.53 308.308C1171.64 308.26 1171.75 308.236 1171.87 308.237H1220.19C1220.45 308.241 1220.69 308.338 1220.87 308.509C1221.06 308.68 1221.17 308.914 1221.2 309.165C1221.21 309.282 1221.2 309.401 1221.16 309.514C1221.12 309.626 1221.06 309.729 1220.98 309.817C1220.9 309.904 1220.81 309.974 1220.7 310.022C1220.59 310.069 1220.47 310.094 1220.36 310.093Z" fill="#E0E0E0"/>
<path d="M1220.83 315.466H1165.65C1165.4 315.449 1165.16 315.347 1164.98 315.178C1164.8 315.01 1164.68 314.784 1164.64 314.538C1164.63 314.42 1164.64 314.3 1164.68 314.188C1164.72 314.075 1164.78 313.972 1164.86 313.885C1164.94 313.798 1165.04 313.73 1165.15 313.684C1165.26 313.638 1165.38 313.617 1165.49 313.62H1220.66C1220.91 313.622 1221.16 313.716 1221.34 313.886C1221.53 314.055 1221.64 314.287 1221.67 314.538C1221.68 314.655 1221.67 314.774 1221.63 314.886C1221.59 314.999 1221.53 315.102 1221.45 315.189C1221.37 315.277 1221.28 315.347 1221.17 315.395C1221.06 315.442 1220.94 315.466 1220.83 315.466Z" fill="#E0E0E0"/>
<path d="M1221.3 320.838H1166.12C1165.87 320.821 1165.63 320.72 1165.45 320.551C1165.27 320.382 1165.15 320.156 1165.11 319.91C1165.1 319.792 1165.11 319.673 1165.15 319.56C1165.19 319.448 1165.25 319.345 1165.33 319.258C1165.41 319.171 1165.51 319.102 1165.62 319.057C1165.73 319.011 1165.85 318.989 1165.96 318.993H1221.13C1221.38 318.994 1221.62 319.089 1221.81 319.259C1222 319.428 1222.11 319.66 1222.14 319.91C1222.15 320.028 1222.14 320.147 1222.1 320.259C1222.06 320.371 1222 320.475 1221.92 320.562C1221.84 320.65 1221.75 320.72 1221.64 320.767C1221.53 320.815 1221.41 320.839 1221.3 320.838Z" fill="#E0E0E0"/>
<path d="M1201.13 244.453H1170.92C1170.67 244.449 1170.43 244.352 1170.24 244.181C1170.06 244.009 1169.94 243.776 1169.92 243.525C1169.9 243.407 1169.91 243.287 1169.95 243.174C1169.99 243.061 1170.05 242.957 1170.13 242.869C1170.21 242.781 1170.3 242.711 1170.41 242.664C1170.52 242.617 1170.64 242.594 1170.76 242.597H1200.96C1201.21 242.601 1201.46 242.698 1201.64 242.869C1201.83 243.04 1201.94 243.274 1201.97 243.525C1201.98 243.643 1201.97 243.762 1201.93 243.875C1201.9 243.988 1201.84 244.093 1201.76 244.18C1201.68 244.268 1201.58 244.338 1201.47 244.385C1201.36 244.432 1201.25 244.455 1201.13 244.453Z" fill="#E0E0E0"/>
<path d="M1196.73 250.59H1176.39C1176.14 250.586 1175.9 250.489 1175.71 250.318C1175.53 250.146 1175.41 249.913 1175.39 249.662C1175.37 249.545 1175.38 249.425 1175.42 249.313C1175.46 249.2 1175.52 249.097 1175.6 249.01C1175.68 248.923 1175.77 248.854 1175.88 248.808C1175.99 248.762 1176.11 248.741 1176.23 248.745H1196.57C1196.82 248.749 1197.06 248.844 1197.25 249.013C1197.43 249.182 1197.55 249.413 1197.58 249.662C1197.59 249.78 1197.58 249.9 1197.54 250.013C1197.5 250.126 1197.44 250.23 1197.36 250.318C1197.28 250.406 1197.18 250.475 1197.07 250.522C1196.96 250.569 1196.84 250.592 1196.73 250.59Z" fill="#E0E0E0"/>
<path opacity="0.5" d="M1218.61 279.615H1161.59L1159.67 257.732H1216.7L1218.61 279.615Z" fill="#E0E0E0"/>
<path d="M917 397H962.749L968 337H922.251L917 397Z" fill="#F5F5F5"/>
<path d="M933.494 345H956.414C956.56 344.996 956.699 344.943 956.806 344.851C956.913 344.759 956.98 344.635 956.997 344.5C957.005 344.436 956.998 344.372 956.976 344.311C956.955 344.25 956.92 344.194 956.873 344.146C956.827 344.099 956.77 344.061 956.707 344.036C956.643 344.011 956.575 343.999 956.506 344H933.586C933.439 344.001 933.299 344.053 933.191 344.146C933.083 344.238 933.016 344.364 933.003 344.5C932.995 344.564 933.002 344.628 933.024 344.689C933.045 344.75 933.08 344.806 933.127 344.854C933.173 344.901 933.23 344.939 933.293 344.964C933.357 344.989 933.425 345.001 933.494 345Z" fill="#E0E0E0"/>
<path d="M925.491 374H953.416C953.562 373.999 953.702 373.947 953.81 373.855C953.917 373.762 953.984 373.636 953.997 373.5C954.005 373.436 953.998 373.372 953.976 373.311C953.955 373.25 953.92 373.194 953.874 373.146C953.828 373.099 953.771 373.061 953.708 373.036C953.645 373.011 953.577 372.999 953.508 373H925.59C925.444 373.003 925.304 373.055 925.196 373.147C925.088 373.239 925.019 373.364 925.002 373.5C924.996 373.564 925.004 373.628 925.025 373.688C925.047 373.749 925.082 373.804 925.128 373.851C925.174 373.898 925.23 373.936 925.293 373.962C925.355 373.987 925.423 374 925.491 374Z" fill="#E0E0E0"/>
<path d="M925.492 377H957.416C957.562 376.999 957.702 376.947 957.809 376.854C957.917 376.762 957.984 376.636 957.997 376.5C958.005 376.436 957.998 376.372 957.976 376.311C957.955 376.25 957.92 376.194 957.874 376.146C957.827 376.099 957.771 376.061 957.708 376.036C957.644 376.011 957.576 375.999 957.508 376H925.584C925.439 376.003 925.299 376.055 925.192 376.147C925.085 376.239 925.018 376.365 925.003 376.5C924.995 376.564 925.002 376.628 925.024 376.689C925.045 376.75 925.08 376.806 925.126 376.854C925.173 376.901 925.229 376.939 925.292 376.964C925.356 376.989 925.424 377.001 925.492 377Z" fill="#E0E0E0"/>
<path d="M924.507 380H957.398C957.548 379.997 957.692 379.945 957.802 379.853C957.912 379.761 957.982 379.635 957.997 379.5C958.005 379.436 957.998 379.372 957.976 379.311C957.954 379.25 957.918 379.194 957.87 379.146C957.822 379.099 957.764 379.061 957.699 379.036C957.634 379.011 957.563 378.999 957.493 379H924.602C924.452 379.003 924.308 379.055 924.198 379.147C924.088 379.239 924.018 379.365 924.003 379.5C923.995 379.564 924.002 379.628 924.024 379.689C924.046 379.75 924.082 379.806 924.13 379.854C924.178 379.901 924.236 379.939 924.301 379.964C924.366 379.989 924.437 380.001 924.507 380Z" fill="#E0E0E0"/>
<path d="M924.485 383H956.416C956.562 382.999 956.702 382.947 956.809 382.855C956.917 382.762 956.984 382.636 956.997 382.5C957.005 382.436 956.998 382.372 956.976 382.311C956.955 382.25 956.92 382.194 956.874 382.146C956.827 382.099 956.771 382.061 956.708 382.036C956.644 382.011 956.576 381.999 956.507 382H924.584C924.439 382.003 924.299 382.055 924.192 382.147C924.085 382.239 924.018 382.365 924.003 382.5C923.995 382.563 924.002 382.627 924.023 382.688C924.044 382.748 924.078 382.804 924.124 382.851C924.169 382.898 924.225 382.936 924.287 382.962C924.349 382.987 924.417 383 924.485 383Z" fill="#E0E0E0"/>
<path d="M924.492 387H952.417C952.562 386.997 952.701 386.945 952.808 386.853C952.915 386.761 952.982 386.635 952.997 386.5C953.005 386.436 952.998 386.372 952.976 386.311C952.955 386.25 952.92 386.194 952.874 386.146C952.828 386.099 952.771 386.061 952.708 386.036C952.645 386.011 952.577 385.999 952.508 386H924.583C924.438 386.003 924.299 386.055 924.192 386.147C924.085 386.239 924.018 386.365 924.003 386.5C923.995 386.564 924.002 386.628 924.024 386.689C924.045 386.75 924.08 386.806 924.126 386.854C924.172 386.901 924.229 386.939 924.292 386.964C924.355 386.989 924.423 387.001 924.492 387Z" fill="#E0E0E0"/>
<path d="M923.5 390H956.397C956.548 389.997 956.691 389.945 956.802 389.853C956.912 389.761 956.982 389.635 956.997 389.5C957.005 389.436 956.998 389.372 956.976 389.311C956.954 389.25 956.918 389.194 956.87 389.146C956.822 389.099 956.764 389.061 956.698 389.036C956.633 389.011 956.563 388.999 956.492 389H923.603C923.452 389.001 923.307 389.053 923.196 389.146C923.086 389.238 923.017 389.364 923.003 389.5C922.995 389.563 923.002 389.627 923.024 389.688C923.045 389.748 923.081 389.804 923.128 389.851C923.174 389.898 923.232 389.936 923.296 389.962C923.36 389.987 923.43 390 923.5 390Z" fill="#E0E0E0"/>
<path d="M923.492 393H955.415C955.561 392.999 955.701 392.947 955.809 392.854C955.916 392.762 955.983 392.636 955.996 392.5C956.005 392.437 955.999 392.372 955.979 392.311C955.958 392.25 955.924 392.194 955.878 392.147C955.833 392.099 955.776 392.061 955.713 392.036C955.651 392.011 955.583 391.999 955.514 392H923.584C923.438 392.001 923.298 392.053 923.19 392.146C923.083 392.238 923.016 392.364 923.003 392.5C922.995 392.564 923.002 392.628 923.024 392.689C923.045 392.75 923.08 392.806 923.126 392.854C923.173 392.901 923.229 392.939 923.292 392.964C923.356 392.989 923.424 393.001 923.492 393Z" fill="#E0E0E0"/>
<path d="M935.504 348H953.402C953.551 347.999 953.695 347.947 953.805 347.854C953.915 347.762 953.983 347.636 953.997 347.5C954.005 347.437 953.998 347.373 953.976 347.312C953.955 347.252 953.92 347.196 953.873 347.149C953.827 347.102 953.77 347.064 953.706 347.038C953.642 347.013 953.573 347 953.503 347H935.598C935.449 347.003 935.307 347.055 935.197 347.147C935.087 347.239 935.018 347.365 935.003 347.5C934.995 347.564 935.002 347.628 935.024 347.689C935.046 347.75 935.082 347.806 935.129 347.854C935.177 347.901 935.235 347.939 935.299 347.964C935.364 347.989 935.434 348.001 935.504 348Z" fill="#E0E0E0"/>
<path d="M938.453 352H949.455C949.59 351.996 949.72 351.943 949.82 351.851C949.919 351.759 949.983 351.635 949.998 351.5C950.004 351.436 949.997 351.372 949.976 351.312C949.956 351.251 949.923 351.196 949.88 351.149C949.837 351.102 949.785 351.064 949.726 351.038C949.668 351.013 949.605 351 949.541 351H938.546C938.409 351.001 938.278 351.053 938.178 351.145C938.078 351.238 938.015 351.364 938.003 351.5C937.996 351.563 938.002 351.627 938.022 351.688C938.041 351.748 938.073 351.804 938.116 351.851C938.158 351.898 938.21 351.936 938.268 351.962C938.326 351.987 938.389 352 938.453 352Z" fill="#E0E0E0"/>
<path opacity="0.5" d="M925 369H958.862L960 356H926.138L925 369Z" fill="#E0E0E0"/>
<path d="M995.492 306.435H1078.9L1088.49 196.907H1005.07L995.492 306.435Z" fill="#FAFAFA"/>
<path d="M1025.59 211.016H1067.63C1067.9 211.017 1068.16 210.917 1068.37 210.736C1068.57 210.554 1068.69 210.303 1068.72 210.033C1068.74 209.908 1068.72 209.782 1068.68 209.662C1068.64 209.542 1068.58 209.432 1068.5 209.339C1068.41 209.246 1068.31 209.172 1068.19 209.122C1068.08 209.073 1067.95 209.048 1067.83 209.05H1025.78C1025.51 209.049 1025.25 209.149 1025.05 209.331C1024.85 209.512 1024.72 209.763 1024.69 210.033C1024.68 210.158 1024.69 210.285 1024.73 210.405C1024.77 210.524 1024.83 210.634 1024.92 210.727C1025 210.82 1025.11 210.894 1025.22 210.944C1025.34 210.994 1025.46 211.018 1025.59 211.016Z" fill="#E6E6E6"/>
<path d="M1011.46 264.611H1062.93C1063.21 264.613 1063.47 264.513 1063.67 264.331C1063.87 264.149 1064 263.899 1064.03 263.629C1064.04 263.503 1064.02 263.376 1063.98 263.256C1063.94 263.137 1063.88 263.027 1063.79 262.934C1063.71 262.841 1063.6 262.768 1063.49 262.718C1063.37 262.668 1063.25 262.644 1063.12 262.646H1011.63C1011.36 262.644 1011.1 262.744 1010.9 262.926C1010.69 263.108 1010.57 263.358 1010.54 263.629C1010.53 263.755 1010.54 263.884 1010.58 264.005C1010.62 264.127 1010.68 264.238 1010.77 264.331C1010.86 264.425 1010.97 264.498 1011.08 264.546C1011.2 264.595 1011.33 264.617 1011.46 264.611Z" fill="#E6E6E6"/>
<path d="M1010.97 270.344H1069.75C1070.02 270.345 1070.29 270.244 1070.49 270.06C1070.69 269.876 1070.82 269.623 1070.84 269.351C1070.85 269.225 1070.84 269.098 1070.8 268.978C1070.76 268.859 1070.69 268.749 1070.61 268.656C1070.52 268.563 1070.42 268.49 1070.3 268.44C1070.19 268.39 1070.06 268.366 1069.93 268.368H1011.13C1010.86 268.367 1010.6 268.466 1010.39 268.648C1010.19 268.83 1010.06 269.08 1010.04 269.351C1010.03 269.479 1010.04 269.608 1010.08 269.73C1010.12 269.851 1010.19 269.963 1010.28 270.057C1010.36 270.151 1010.47 270.225 1010.59 270.275C1010.71 270.324 1010.84 270.348 1010.97 270.344Z" fill="#E6E6E6"/>
<path d="M1010.46 276.066H1069.25C1069.52 276.068 1069.78 275.968 1069.98 275.786C1070.18 275.604 1070.31 275.354 1070.34 275.084C1070.35 274.958 1070.34 274.831 1070.3 274.711C1070.26 274.59 1070.2 274.48 1070.11 274.386C1070.03 274.292 1069.92 274.217 1069.81 274.166C1069.69 274.115 1069.57 274.089 1069.44 274.09H1010.63C1010.35 274.089 1010.09 274.19 1009.89 274.374C1009.69 274.558 1009.56 274.811 1009.54 275.084C1009.52 275.211 1009.54 275.34 1009.58 275.461C1009.62 275.582 1009.69 275.693 1009.78 275.787C1009.86 275.88 1009.97 275.953 1010.09 276.001C1010.21 276.05 1010.34 276.072 1010.46 276.066Z" fill="#E6E6E6"/>
<path d="M1009.96 281.789H1068.74C1069.02 281.79 1069.28 281.69 1069.48 281.508C1069.68 281.326 1069.81 281.076 1069.84 280.806C1069.85 280.681 1069.84 280.554 1069.8 280.434C1069.76 280.315 1069.7 280.205 1069.61 280.112C1069.53 280.019 1069.42 279.945 1069.31 279.895C1069.19 279.845 1069.07 279.821 1068.94 279.823H1010.14C1009.86 279.822 1009.6 279.921 1009.4 280.103C1009.2 280.285 1009.07 280.535 1009.04 280.806C1009.03 280.932 1009.05 281.06 1009.09 281.181C1009.13 281.301 1009.19 281.411 1009.28 281.504C1009.37 281.597 1009.47 281.671 1009.59 281.72C1009.71 281.769 1009.83 281.792 1009.96 281.789Z" fill="#E6E6E6"/>
<path d="M1009.46 287.511H1060.94C1061.21 287.512 1061.47 287.412 1061.67 287.23C1061.87 287.049 1062 286.798 1062.03 286.528C1062.04 286.403 1062.03 286.276 1061.99 286.156C1061.95 286.037 1061.89 285.927 1061.8 285.834C1061.72 285.741 1061.61 285.667 1061.5 285.617C1061.38 285.567 1061.26 285.543 1061.13 285.545H1009.69C1009.42 285.544 1009.15 285.644 1008.95 285.825C1008.75 286.007 1008.62 286.258 1008.6 286.528C1008.58 286.65 1008.59 286.775 1008.63 286.893C1008.66 287.011 1008.72 287.12 1008.81 287.213C1008.89 287.306 1008.99 287.381 1009.1 287.432C1009.21 287.483 1009.34 287.51 1009.46 287.511Z" fill="#E6E6E6"/>
<path d="M1008.96 293.244H1067.74C1068.01 293.245 1068.28 293.143 1068.48 292.959C1068.68 292.775 1068.81 292.522 1068.83 292.25C1068.85 292.124 1068.84 291.997 1068.8 291.877C1068.76 291.756 1068.69 291.645 1068.61 291.552C1068.52 291.458 1068.42 291.385 1068.3 291.335C1068.19 291.286 1068.06 291.263 1067.94 291.267H1009.13C1008.86 291.266 1008.6 291.366 1008.4 291.547C1008.19 291.729 1008.07 291.98 1008.04 292.25C1008.02 292.378 1008.04 292.507 1008.07 292.63C1008.11 292.753 1008.18 292.865 1008.27 292.96C1008.35 293.055 1008.46 293.129 1008.58 293.178C1008.7 293.227 1008.83 293.249 1008.96 293.244Z" fill="#E6E6E6"/>
<path d="M1008.45 298.966H1067.24C1067.51 298.967 1067.77 298.867 1067.97 298.685C1068.17 298.504 1068.3 298.253 1068.33 297.983C1068.34 297.857 1068.33 297.729 1068.29 297.608C1068.26 297.487 1068.19 297.376 1068.11 297.281C1068.02 297.187 1067.92 297.112 1067.8 297.062C1067.69 297.011 1067.56 296.987 1067.43 296.989H1008.6C1008.32 296.988 1008.06 297.089 1007.86 297.273C1007.65 297.457 1007.53 297.711 1007.5 297.983C1007.49 298.113 1007.5 298.244 1007.54 298.368C1007.59 298.492 1007.66 298.605 1007.75 298.699C1007.84 298.793 1007.95 298.865 1008.07 298.912C1008.19 298.958 1008.32 298.976 1008.45 298.966Z" fill="#E6E6E6"/>
<path d="M1029.94 217.568H1062.1C1062.38 217.569 1062.64 217.469 1062.84 217.288C1063.04 217.106 1063.17 216.855 1063.2 216.585C1063.21 216.46 1063.2 216.332 1063.16 216.212C1063.12 216.091 1063.06 215.981 1062.98 215.887C1062.89 215.794 1062.79 215.72 1062.67 215.671C1062.55 215.622 1062.43 215.598 1062.3 215.602H1030.12C1029.85 215.601 1029.59 215.701 1029.38 215.883C1029.18 216.064 1029.05 216.315 1029.03 216.585C1029.01 216.713 1029.02 216.842 1029.06 216.964C1029.1 217.086 1029.17 217.198 1029.26 217.292C1029.34 217.386 1029.45 217.459 1029.57 217.507C1029.69 217.555 1029.82 217.575 1029.94 217.568Z" fill="#E6E6E6"/>
<path d="M1034.63 224.12H1056.31C1056.58 224.121 1056.84 224.021 1057.04 223.84C1057.24 223.658 1057.37 223.408 1057.4 223.137C1057.41 223.012 1057.4 222.885 1057.36 222.765C1057.31 222.645 1057.25 222.535 1057.16 222.443C1057.08 222.35 1056.97 222.276 1056.86 222.227C1056.74 222.177 1056.62 222.152 1056.49 222.154H1034.8C1034.53 222.153 1034.27 222.253 1034.07 222.435C1033.87 222.616 1033.74 222.867 1033.71 223.137C1033.7 223.264 1033.71 223.392 1033.75 223.512C1033.8 223.633 1033.86 223.743 1033.95 223.836C1034.04 223.929 1034.14 224.002 1034.26 224.051C1034.38 224.1 1034.5 224.124 1034.63 224.12Z" fill="#E6E6E6"/>
<path opacity="0.5" d="M1011.31 255.035H1072.07L1074.1 231.72H1013.36L1011.31 255.035Z" fill="#F0F0F0"/>
<path d="M1237.76 389.132C1237.48 392.408 1227.67 394.275 1215.92 393.249C1204.17 392.222 1194.79 388.695 1195.09 385.397L1196.34 370.972L1239.01 374.707L1237.76 389.132Z" fill="#EBEBEB"/>
<path opacity="0.6" d="M1195.95 375.002C1197.58 377.994 1206.24 380.909 1216.87 381.848C1227.51 382.788 1236.53 381.412 1238.71 378.747L1239.06 374.707L1196.33 370.972L1195.95 375.002Z" fill="#E0E0E0"/>
<path d="M1216.76 380.385L1182.4 366.419C1182.24 366.356 1182.11 366.247 1182.02 366.105C1181.92 365.963 1181.88 365.795 1181.89 365.627C1181.9 365.458 1181.96 365.296 1182.06 365.164C1182.17 365.032 1182.31 364.936 1182.48 364.89L1218.99 354.417C1219.17 354.347 1219.38 354.347 1219.56 354.417L1253.71 371.081C1253.86 371.155 1253.98 371.274 1254.06 371.422C1254.14 371.57 1254.18 371.739 1254.16 371.907C1254.14 372.074 1254.06 372.231 1253.95 372.355C1253.84 372.479 1253.69 372.564 1253.52 372.599L1217.24 380.385C1217.09 380.434 1216.92 380.434 1216.76 380.385Z" fill="#EBEBEB"/>
<path d="M929.284 445.468H883.147V452.566H929.284V445.468Z" fill="#F0F0F0"/>
<path d="M884.676 449.563H927.788C928.735 449.563 929.643 449.94 930.313 450.609C930.983 451.279 931.359 452.187 931.359 453.134V522.727H881.127V453.134C881.126 452.665 881.217 452.2 881.396 451.766C881.575 451.332 881.838 450.938 882.17 450.606C882.502 450.274 882.896 450.011 883.33 449.832C883.763 449.653 884.228 449.562 884.698 449.563H884.676Z" fill="#E6E6E6"/>
<path d="M927.395 436.732H885.047C882.87 436.732 881.105 438.497 881.105 440.675V443.71C881.105 445.887 882.87 447.652 885.047 447.652H927.395C929.572 447.652 931.337 445.887 931.337 443.71V440.675C931.337 438.497 929.572 436.732 927.395 436.732Z" fill="#E6E6E6"/>
<path d="M937.834 522.727H914.356V519.451L937.834 517.267V522.727Z" fill="#F5F5F5"/>
<path d="M1121.9 421.237L1106.61 387.287H1070.77L1076.23 419.053C1076.35 419.796 1076.17 420.556 1075.74 421.169C1075.3 421.781 1074.64 422.198 1073.9 422.329H1073.44H1057.74C1057.33 422.329 1056.95 422.489 1056.66 422.773C1056.38 423.058 1056.22 423.444 1056.22 423.847V425.528C1056.22 425.931 1056.38 426.317 1056.66 426.602C1056.95 426.886 1057.33 427.046 1057.74 427.046H1120.78C1121.21 427.046 1121.63 426.873 1121.94 426.563C1122.25 426.254 1122.43 425.835 1122.43 425.397V423.65C1122.42 422.818 1122.24 421.996 1121.9 421.237ZM1105.33 417.044H1088.13C1087.58 417.043 1087.06 416.851 1086.65 416.502C1086.23 416.152 1085.96 415.667 1085.87 415.133L1083.27 400.139C1083.21 399.842 1083.22 399.537 1083.29 399.242C1083.36 398.948 1083.48 398.669 1083.65 398.422C1083.83 398.176 1084.05 397.966 1084.31 397.805C1084.56 397.645 1084.85 397.536 1085.14 397.486H1085.54H1098.54C1098.99 397.484 1099.42 397.61 1099.79 397.848C1100.16 398.086 1100.46 398.427 1100.64 398.829L1107.42 413.822C1107.58 414.174 1107.65 414.56 1107.62 414.945C1107.59 415.33 1107.47 415.701 1107.26 416.026C1107.05 416.351 1106.76 416.619 1106.43 416.806C1106.09 416.994 1105.71 417.094 1105.33 417.098V417.044Z" fill="#263238"/>
<path opacity="0.8" d="M1121.9 421.237L1106.61 387.287H1070.77L1076.23 419.053C1076.35 419.796 1076.17 420.556 1075.74 421.169C1075.3 421.781 1074.64 422.198 1073.9 422.329H1073.44H1057.74C1057.33 422.329 1056.95 422.489 1056.66 422.773C1056.38 423.058 1056.22 423.444 1056.22 423.847V425.528C1056.22 425.931 1056.38 426.317 1056.66 426.602C1056.95 426.886 1057.33 427.046 1057.74 427.046H1120.78C1121.21 427.046 1121.63 426.873 1121.94 426.563C1122.25 426.254 1122.43 425.835 1122.43 425.397V423.65C1122.42 422.818 1122.24 421.996 1121.9 421.237ZM1105.33 417.044H1088.13C1087.58 417.043 1087.06 416.851 1086.65 416.502C1086.23 416.152 1085.96 415.667 1085.87 415.133L1083.27 400.139C1083.21 399.842 1083.22 399.537 1083.29 399.242C1083.36 398.948 1083.48 398.669 1083.65 398.422C1083.83 398.176 1084.05 397.966 1084.31 397.805C1084.56 397.645 1084.85 397.536 1085.14 397.486H1085.54H1098.54C1098.99 397.484 1099.42 397.61 1099.79 397.848C1100.16 398.086 1100.46 398.427 1100.64 398.829L1107.42 413.822C1107.58 414.174 1107.65 414.56 1107.62 414.945C1107.59 415.33 1107.47 415.701 1107.26 416.026C1107.05 416.351 1106.76 416.619 1106.43 416.806C1106.09 416.994 1105.71 417.094 1105.33 417.098V417.044Z" fill="white"/>
<path opacity="0.2" d="M1105.33 417.044H1088.13C1087.58 417.043 1087.06 416.851 1086.65 416.502C1086.23 416.152 1085.96 415.667 1085.87 415.133L1083.27 400.139C1083.22 399.842 1083.22 399.537 1083.29 399.242C1083.36 398.948 1083.48 398.669 1083.65 398.422C1083.83 398.176 1084.05 397.966 1084.31 397.805C1084.56 397.645 1084.85 397.536 1085.14 397.486H1085.54H1098.54C1098.99 397.484 1099.42 397.61 1099.79 397.848C1100.16 398.086 1100.46 398.427 1100.64 398.829L1107.42 413.822C1107.58 414.174 1107.65 414.56 1107.62 414.945C1107.59 415.33 1107.47 415.701 1107.26 416.026C1107.05 416.351 1106.76 416.619 1106.43 416.806C1106.09 416.994 1105.71 417.094 1105.33 417.098V417.044Z" fill="white"/>
<path d="M1087.56 397.42H1085.54C1085.24 397.419 1084.94 397.477 1084.66 397.592C1084.38 397.706 1084.12 397.875 1083.91 398.088C1083.7 398.301 1083.53 398.555 1083.41 398.834C1083.29 399.112 1083.23 399.412 1083.23 399.714C1083.22 399.844 1083.22 399.976 1083.23 400.107L1085.83 415.1C1085.92 415.634 1086.2 416.119 1086.61 416.467C1087.03 416.816 1087.55 417.005 1088.09 417H1090.12C1089.58 417.005 1089.06 416.816 1088.64 416.467C1088.23 416.119 1087.95 415.634 1087.86 415.1L1085.27 400.107C1085.21 399.809 1085.22 399.504 1085.28 399.208C1085.35 398.913 1085.47 398.634 1085.65 398.387C1085.82 398.14 1086.05 397.93 1086.3 397.77C1086.56 397.61 1086.84 397.502 1087.14 397.453C1087.28 397.43 1087.42 397.419 1087.56 397.42Z" fill="#263238"/>
<path d="M1123.93 421.237L1108.64 387.308H1106.62L1121.91 421.237C1122.27 422.029 1122.46 422.889 1122.46 423.759V425.518C1122.46 425.954 1122.28 426.372 1121.97 426.68C1121.66 426.989 1121.25 427.164 1120.81 427.166H1122.84C1123.28 427.164 1123.69 426.989 1124 426.68C1124.31 426.372 1124.49 425.954 1124.49 425.518V423.759C1124.49 422.888 1124.3 422.028 1123.93 421.237Z" fill="#263238"/>
<path opacity="0.2" d="M1106.57 387.287H1070.76L1072.17 395.389H1110.24L1106.57 387.287Z" fill="black"/>
<path d="M1157.94 390.847H1005.18C1003.85 390.867 1002.56 390.36 1001.6 389.435C1000.64 388.51 1000.09 387.243 1000.06 385.911C1000.04 385.689 1000.04 385.466 1000.06 385.245L1009.71 274.854C1009.86 273.34 1010.56 271.933 1011.68 270.902C1012.8 269.871 1014.26 269.288 1015.78 269.263H1168.57C1169.24 269.249 1169.89 269.365 1170.51 269.606C1171.12 269.846 1171.69 270.207 1172.16 270.665C1172.64 271.124 1173.02 271.673 1173.28 272.279C1173.55 272.886 1173.69 273.538 1173.7 274.199C1173.71 274.417 1173.71 274.636 1173.7 274.854L1164.03 385.256C1163.88 386.773 1163.17 388.181 1162.05 389.212C1160.93 390.243 1159.46 390.825 1157.94 390.847Z" fill="#263238"/>
<path d="M1001.13 373.32L1000.03 385.256C999.959 385.912 1000.01 386.577 1000.2 387.212C1000.38 387.847 1000.68 388.44 1001.1 388.957C1001.51 389.473 1002.02 389.903 1002.6 390.222C1003.18 390.541 1003.81 390.742 1004.47 390.814C1004.69 390.836 1004.91 390.836 1005.12 390.814H1157.89C1159.42 390.789 1160.88 390.206 1161.99 389.175C1163.11 388.144 1163.82 386.737 1163.97 385.223L1165.06 373.287L1001.13 373.32Z" fill="#407BFF"/>
<path opacity="0.7" d="M1001.13 373.32L1000.03 385.256C999.959 385.912 1000.01 386.577 1000.2 387.212C1000.38 387.847 1000.68 388.44 1001.1 388.957C1001.51 389.473 1002.02 389.903 1002.6 390.222C1003.18 390.541 1003.81 390.742 1004.47 390.814C1004.69 390.836 1004.91 390.836 1005.12 390.814H1157.89C1159.42 390.789 1160.88 390.206 1161.99 389.175C1163.11 388.144 1163.82 386.737 1163.97 385.223L1165.06 373.287L1001.13 373.32Z" fill="white"/>
<path d="M1159.66 369.946H1007.1C1006.74 369.953 1006.39 369.889 1006.05 369.759C1005.72 369.628 1005.41 369.433 1005.16 369.184C1004.9 368.936 1004.69 368.639 1004.55 368.31C1004.41 367.982 1004.33 367.628 1004.33 367.27C1004.32 367.154 1004.32 367.037 1004.33 366.921L1012.31 275.684C1012.39 274.867 1012.77 274.108 1013.37 273.551C1013.98 272.994 1014.76 272.677 1015.58 272.659H1168.18C1168.54 272.652 1168.89 272.716 1169.23 272.846C1169.56 272.977 1169.87 273.172 1170.12 273.421C1170.38 273.669 1170.59 273.967 1170.73 274.295C1170.87 274.623 1170.95 274.977 1170.95 275.335C1170.95 275.444 1170.95 275.564 1170.95 275.684L1162.97 366.921C1162.89 367.743 1162.5 368.505 1161.89 369.062C1161.28 369.62 1160.49 369.934 1159.66 369.946Z" fill="#407BFF"/>
<path d="M1159.66 369.946H1007.1C1006.74 369.953 1006.39 369.889 1006.05 369.759C1005.72 369.628 1005.41 369.433 1005.16 369.184C1004.9 368.936 1004.69 368.639 1004.55 368.31C1004.41 367.982 1004.33 367.628 1004.33 367.27C1004.32 367.154 1004.32 367.037 1004.33 366.921L1012.31 275.684C1012.39 274.867 1012.77 274.108 1013.37 273.551C1013.98 272.994 1014.76 272.677 1015.58 272.659H1168.18C1168.54 272.652 1168.89 272.716 1169.23 272.846C1169.56 272.977 1169.87 273.172 1170.12 273.421C1170.38 273.669 1170.59 273.967 1170.73 274.295C1170.87 274.623 1170.95 274.977 1170.95 275.335C1170.95 275.444 1170.95 275.564 1170.95 275.684L1162.97 366.921C1162.89 367.743 1162.5 368.505 1161.89 369.062C1161.28 369.62 1160.49 369.934 1159.66 369.946Z" fill="#F47E20"/>
<path d="M1171.96 269.285H1168.57C1169.23 269.271 1169.89 269.387 1170.51 269.628C1171.12 269.868 1171.69 270.228 1172.16 270.687C1172.64 271.146 1173.02 271.694 1173.28 272.301C1173.54 272.907 1173.69 273.56 1173.7 274.221C1173.71 274.439 1173.71 274.658 1173.7 274.876L1164.03 385.256C1163.88 386.77 1163.18 388.177 1162.06 389.208C1160.94 390.238 1159.48 390.822 1157.96 390.847H1161.34C1162.87 390.822 1164.32 390.238 1165.44 389.207C1166.56 388.176 1167.26 386.769 1167.41 385.256L1177.07 274.865C1177.14 274.209 1177.09 273.545 1176.9 272.911C1176.72 272.277 1176.41 271.686 1176 271.17C1175.58 270.655 1175.07 270.226 1174.5 269.908C1173.92 269.591 1173.28 269.39 1172.63 269.318L1171.96 269.285Z" fill="#407BFF"/>
<path opacity="0.2" d="M1171.96 269.285H1168.57C1169.23 269.271 1169.89 269.387 1170.51 269.628C1171.12 269.868 1171.69 270.228 1172.16 270.687C1172.64 271.146 1173.02 271.694 1173.28 272.301C1173.54 272.907 1173.69 273.56 1173.7 274.221C1173.71 274.439 1173.71 274.658 1173.7 274.876L1164.03 385.256C1163.88 386.77 1163.18 388.177 1162.06 389.208C1160.94 390.238 1159.48 390.822 1157.96 390.847H1161.34C1162.87 390.822 1164.32 390.238 1165.44 389.207C1166.56 388.176 1167.26 386.769 1167.41 385.256L1177.07 274.865C1177.14 274.209 1177.09 273.545 1176.9 272.911C1176.72 272.277 1176.41 271.686 1176 271.17C1175.58 270.655 1175.07 270.226 1174.5 269.908C1173.92 269.591 1173.28 269.39 1172.63 269.318L1171.96 269.285Z" fill="white"/>
<path d="M1044.87 369.269H1114.87L1122.91 277.377H1052.92L1044.87 369.269Z" fill="#407BFF"/>
<path opacity="0.7" d="M1044.87 369.269H1114.87L1122.91 277.377H1052.92L1044.87 369.269Z" fill="white"/>
<path d="M1070.14 289.225H1105.4C1105.63 289.221 1105.84 289.134 1106.01 288.982C1106.18 288.829 1106.28 288.62 1106.31 288.395C1106.32 288.291 1106.3 288.186 1106.27 288.087C1106.24 287.987 1106.18 287.897 1106.11 287.819C1106.04 287.742 1105.95 287.681 1105.86 287.639C1105.76 287.597 1105.66 287.576 1105.55 287.576H1070.28C1070.06 287.58 1069.84 287.665 1069.68 287.816C1069.51 287.966 1069.4 288.172 1069.38 288.395C1069.37 288.501 1069.38 288.608 1069.41 288.71C1069.44 288.811 1069.5 288.904 1069.57 288.982C1069.64 289.061 1069.73 289.123 1069.83 289.165C1069.93 289.207 1070.03 289.227 1070.14 289.225Z" fill="#263238"/>
<path d="M1058.28 334.183H1101.47C1101.7 334.179 1101.91 334.092 1102.08 333.939C1102.25 333.786 1102.35 333.578 1102.38 333.353C1102.39 333.248 1102.37 333.142 1102.34 333.042C1102.3 332.942 1102.25 332.85 1102.18 332.773C1102.11 332.696 1102.02 332.635 1101.92 332.593C1101.82 332.552 1101.72 332.532 1101.61 332.534H1058.42C1058.2 332.535 1057.98 332.62 1057.82 332.771C1057.65 332.923 1057.55 333.13 1057.53 333.353C1057.52 333.458 1057.53 333.565 1057.56 333.666C1057.59 333.768 1057.64 333.861 1057.72 333.939C1057.79 334.018 1057.88 334.081 1057.97 334.123C1058.07 334.164 1058.18 334.185 1058.28 334.183Z" fill="#263238"/>
<path d="M1057.86 338.987H1107.18C1107.41 338.986 1107.62 338.899 1107.79 338.746C1107.96 338.592 1108.06 338.383 1108.08 338.158C1108.09 338.053 1108.08 337.947 1108.04 337.847C1108.01 337.747 1107.96 337.656 1107.88 337.578C1107.81 337.501 1107.73 337.439 1107.63 337.398C1107.53 337.357 1107.43 337.336 1107.32 337.339H1058.01C1057.78 337.342 1057.57 337.427 1057.4 337.578C1057.24 337.729 1057.13 337.934 1057.1 338.158C1057.09 338.263 1057.1 338.369 1057.14 338.469C1057.17 338.57 1057.22 338.662 1057.29 338.74C1057.37 338.819 1057.45 338.881 1057.55 338.924C1057.65 338.966 1057.75 338.988 1057.86 338.987Z" fill="#263238"/>
<path d="M1057.44 343.792H1106.77C1106.99 343.786 1107.21 343.698 1107.37 343.545C1107.53 343.393 1107.64 343.186 1107.66 342.962C1107.67 342.857 1107.66 342.75 1107.63 342.649C1107.6 342.547 1107.55 342.454 1107.47 342.376C1107.4 342.297 1107.32 342.235 1107.22 342.193C1107.12 342.151 1107.02 342.13 1106.91 342.132H1057.58C1057.36 342.137 1057.14 342.224 1056.98 342.377C1056.81 342.53 1056.71 342.738 1056.69 342.962C1056.68 343.068 1056.69 343.175 1056.72 343.276C1056.75 343.377 1056.8 343.47 1056.88 343.549C1056.95 343.628 1057.03 343.69 1057.13 343.732C1057.23 343.774 1057.34 343.795 1057.44 343.792Z" fill="#263238"/>
<path d="M1057.02 348.608H1106.34C1106.57 348.606 1106.78 348.52 1106.95 348.366C1107.11 348.213 1107.22 348.003 1107.24 347.778C1107.25 347.673 1107.24 347.566 1107.21 347.464C1107.17 347.363 1107.12 347.27 1107.05 347.191C1106.98 347.113 1106.89 347.05 1106.79 347.008C1106.69 346.966 1106.59 346.946 1106.48 346.948H1057.17C1056.94 346.952 1056.72 347.039 1056.56 347.192C1056.39 347.344 1056.29 347.553 1056.26 347.778C1056.25 347.883 1056.26 347.99 1056.3 348.09C1056.33 348.19 1056.38 348.283 1056.45 348.361C1056.52 348.439 1056.61 348.502 1056.71 348.544C1056.8 348.587 1056.91 348.609 1057.02 348.608Z" fill="#263238"/>
<path d="M1056.64 353.402H1099.83C1100.06 353.398 1100.28 353.311 1100.44 353.158C1100.61 353.006 1100.71 352.797 1100.74 352.572C1100.75 352.467 1100.74 352.361 1100.71 352.26C1100.67 352.16 1100.62 352.067 1100.55 351.989C1100.48 351.911 1100.39 351.848 1100.29 351.806C1100.2 351.763 1100.09 351.741 1099.99 351.742H1056.74C1056.52 351.746 1056.3 351.833 1056.14 351.986C1055.97 352.139 1055.87 352.348 1055.85 352.572C1055.83 352.681 1055.84 352.792 1055.88 352.897C1055.91 353.001 1055.97 353.097 1056.05 353.176C1056.12 353.256 1056.22 353.317 1056.32 353.356C1056.42 353.395 1056.53 353.411 1056.64 353.402Z" fill="#263238"/>
<path d="M1056.17 358.196H1105.5C1105.73 358.194 1105.94 358.11 1106.11 357.959C1106.28 357.808 1106.38 357.601 1106.41 357.377C1106.42 357.271 1106.41 357.163 1106.37 357.062C1106.34 356.961 1106.28 356.868 1106.21 356.79C1106.14 356.711 1106.05 356.649 1105.95 356.607C1105.85 356.565 1105.75 356.545 1105.64 356.547H1056.33C1056.1 356.551 1055.88 356.637 1055.72 356.79C1055.55 356.943 1055.44 357.152 1055.42 357.377C1055.41 357.481 1055.42 357.587 1055.45 357.687C1055.49 357.787 1055.54 357.879 1055.61 357.956C1055.68 358.034 1055.77 358.095 1055.87 358.136C1055.96 358.178 1056.07 358.198 1056.17 358.196Z" fill="#263238"/>
<path d="M1055.76 363.001H1105.09C1105.31 362.996 1105.52 362.911 1105.69 362.76C1105.85 362.609 1105.96 362.404 1105.98 362.182C1105.99 362.076 1105.98 361.969 1105.95 361.868C1105.92 361.767 1105.86 361.674 1105.79 361.595C1105.72 361.516 1105.63 361.454 1105.54 361.412C1105.44 361.37 1105.33 361.349 1105.23 361.352H1055.9C1055.68 361.356 1055.46 361.443 1055.3 361.596C1055.13 361.749 1055.03 361.957 1055.01 362.182C1055 362.286 1055.01 362.392 1055.04 362.492C1055.07 362.592 1055.13 362.683 1055.2 362.761C1055.27 362.838 1055.36 362.9 1055.45 362.941C1055.55 362.982 1055.65 363.003 1055.76 363.001Z" fill="#263238"/>
<path d="M1073.79 294.718H1100.79C1101.02 294.716 1101.24 294.63 1101.4 294.476C1101.57 294.323 1101.67 294.113 1101.69 293.888C1101.7 293.782 1101.69 293.675 1101.66 293.574C1101.63 293.473 1101.57 293.38 1101.5 293.301C1101.43 293.223 1101.34 293.16 1101.24 293.118C1101.15 293.076 1101.04 293.056 1100.94 293.058H1073.93C1073.71 293.065 1073.49 293.152 1073.33 293.305C1073.16 293.458 1073.06 293.665 1073.03 293.888C1073.02 293.993 1073.03 294.1 1073.07 294.202C1073.1 294.303 1073.15 294.396 1073.22 294.475C1073.29 294.553 1073.38 294.616 1073.48 294.658C1073.58 294.7 1073.68 294.72 1073.79 294.718Z" fill="#263238"/>
<path d="M1077.72 300.2H1095.96C1096.18 300.196 1096.4 300.111 1096.56 299.96C1096.73 299.81 1096.84 299.604 1096.86 299.381C1096.87 299.275 1096.86 299.167 1096.83 299.066C1096.79 298.965 1096.74 298.872 1096.67 298.794C1096.59 298.715 1096.51 298.653 1096.41 298.611C1096.31 298.569 1096.2 298.549 1096.1 298.551H1077.86C1077.64 298.553 1077.42 298.639 1077.25 298.792C1077.09 298.946 1076.98 299.156 1076.97 299.381C1076.96 299.485 1076.97 299.591 1077 299.691C1077.03 299.791 1077.09 299.883 1077.16 299.96C1077.23 300.037 1077.32 300.099 1077.41 300.14C1077.51 300.181 1077.61 300.202 1077.72 300.2Z" fill="#263238"/>
<g opacity="0.4">
<path d="M1070.14 289.225H1105.4C1105.63 289.221 1105.84 289.134 1106.01 288.982C1106.18 288.829 1106.28 288.62 1106.31 288.395C1106.32 288.291 1106.3 288.186 1106.27 288.087C1106.24 287.987 1106.18 287.897 1106.11 287.819C1106.04 287.742 1105.95 287.681 1105.86 287.639C1105.76 287.597 1105.66 287.576 1105.55 287.576H1070.28C1070.06 287.58 1069.84 287.665 1069.68 287.816C1069.51 287.966 1069.4 288.172 1069.38 288.395C1069.37 288.501 1069.38 288.608 1069.41 288.71C1069.44 288.811 1069.5 288.904 1069.57 288.982C1069.64 289.061 1069.73 289.123 1069.83 289.165C1069.93 289.207 1070.03 289.227 1070.14 289.225Z" fill="white"/>
<path d="M1058.28 334.183H1101.47C1101.7 334.179 1101.91 334.092 1102.08 333.939C1102.25 333.786 1102.35 333.578 1102.38 333.353C1102.39 333.248 1102.37 333.142 1102.34 333.042C1102.3 332.942 1102.25 332.85 1102.18 332.773C1102.11 332.696 1102.02 332.635 1101.92 332.593C1101.82 332.552 1101.72 332.532 1101.61 332.534H1058.42C1058.2 332.535 1057.98 332.62 1057.82 332.771C1057.65 332.923 1057.55 333.13 1057.53 333.353C1057.52 333.458 1057.53 333.565 1057.56 333.666C1057.59 333.768 1057.64 333.861 1057.72 333.939C1057.79 334.018 1057.88 334.081 1057.97 334.123C1058.07 334.164 1058.18 334.185 1058.28 334.183Z" fill="white"/>
<path d="M1057.86 338.987H1107.18C1107.41 338.986 1107.62 338.899 1107.79 338.746C1107.96 338.592 1108.06 338.383 1108.08 338.158C1108.09 338.053 1108.08 337.947 1108.04 337.847C1108.01 337.747 1107.96 337.656 1107.88 337.578C1107.81 337.501 1107.73 337.439 1107.63 337.398C1107.53 337.357 1107.43 337.336 1107.32 337.339H1058.01C1057.78 337.342 1057.57 337.427 1057.4 337.578C1057.24 337.729 1057.13 337.934 1057.1 338.158C1057.09 338.263 1057.1 338.369 1057.14 338.469C1057.17 338.57 1057.22 338.662 1057.29 338.74C1057.37 338.819 1057.45 338.881 1057.55 338.924C1057.65 338.966 1057.75 338.988 1057.86 338.987Z" fill="white"/>
<path d="M1057.44 343.792H1106.77C1106.99 343.786 1107.21 343.698 1107.37 343.545C1107.53 343.393 1107.64 343.186 1107.66 342.962C1107.67 342.857 1107.66 342.75 1107.63 342.649C1107.6 342.547 1107.55 342.454 1107.47 342.376C1107.4 342.297 1107.32 342.235 1107.22 342.193C1107.12 342.151 1107.02 342.13 1106.91 342.132H1057.58C1057.36 342.137 1057.14 342.224 1056.98 342.377C1056.81 342.53 1056.71 342.738 1056.69 342.962C1056.68 343.068 1056.69 343.175 1056.72 343.276C1056.75 343.377 1056.8 343.47 1056.88 343.549C1056.95 343.628 1057.03 343.69 1057.13 343.732C1057.23 343.774 1057.34 343.795 1057.44 343.792Z" fill="white"/>
<path d="M1057.02 348.608H1106.34C1106.57 348.606 1106.78 348.52 1106.95 348.366C1107.11 348.213 1107.22 348.003 1107.24 347.778C1107.25 347.673 1107.24 347.566 1107.21 347.464C1107.17 347.363 1107.12 347.27 1107.05 347.191C1106.98 347.113 1106.89 347.05 1106.79 347.008C1106.69 346.966 1106.59 346.946 1106.48 346.948H1057.17C1056.94 346.952 1056.72 347.039 1056.56 347.192C1056.39 347.344 1056.29 347.553 1056.26 347.778C1056.25 347.883 1056.26 347.99 1056.3 348.09C1056.33 348.19 1056.38 348.283 1056.45 348.361C1056.52 348.439 1056.61 348.502 1056.71 348.544C1056.8 348.587 1056.91 348.609 1057.02 348.608Z" fill="white"/>
<path d="M1056.64 353.402H1099.83C1100.06 353.398 1100.28 353.311 1100.44 353.158C1100.61 353.006 1100.71 352.797 1100.74 352.572C1100.75 352.467 1100.74 352.361 1100.71 352.26C1100.67 352.16 1100.62 352.067 1100.55 351.989C1100.48 351.911 1100.39 351.848 1100.29 351.806C1100.2 351.763 1100.09 351.741 1099.99 351.742H1056.74C1056.52 351.746 1056.3 351.833 1056.14 351.986C1055.97 352.139 1055.87 352.348 1055.85 352.572C1055.83 352.681 1055.84 352.792 1055.88 352.897C1055.91 353.001 1055.97 353.097 1056.05 353.176C1056.12 353.256 1056.22 353.317 1056.32 353.356C1056.42 353.395 1056.53 353.411 1056.64 353.402Z" fill="white"/>
<path d="M1056.17 358.196H1105.5C1105.73 358.194 1105.94 358.11 1106.11 357.959C1106.28 357.808 1106.38 357.601 1106.41 357.377C1106.42 357.271 1106.41 357.163 1106.37 357.062C1106.34 356.961 1106.28 356.868 1106.21 356.79C1106.14 356.711 1106.05 356.649 1105.95 356.607C1105.85 356.565 1105.75 356.545 1105.64 356.547H1056.33C1056.1 356.551 1055.88 356.637 1055.72 356.79C1055.55 356.943 1055.44 357.152 1055.42 357.377C1055.41 357.481 1055.42 357.587 1055.45 357.687C1055.49 357.787 1055.54 357.879 1055.61 357.956C1055.68 358.034 1055.77 358.095 1055.87 358.136C1055.96 358.178 1056.07 358.198 1056.17 358.196Z" fill="white"/>
<path d="M1055.76 363.001H1105.09C1105.31 362.996 1105.52 362.911 1105.69 362.76C1105.85 362.609 1105.96 362.404 1105.98 362.182C1105.99 362.076 1105.98 361.969 1105.95 361.868C1105.92 361.767 1105.86 361.674 1105.79 361.595C1105.72 361.516 1105.63 361.454 1105.54 361.412C1105.44 361.37 1105.33 361.349 1105.23 361.352H1055.9C1055.68 361.356 1055.46 361.443 1055.3 361.596C1055.13 361.749 1055.03 361.957 1055.01 362.182C1055 362.286 1055.01 362.392 1055.04 362.492C1055.07 362.592 1055.13 362.683 1055.2 362.761C1055.27 362.838 1055.36 362.9 1055.45 362.941C1055.55 362.982 1055.65 363.003 1055.76 363.001Z" fill="white"/>
<path d="M1073.79 294.718H1100.79C1101.02 294.716 1101.24 294.63 1101.4 294.476C1101.57 294.323 1101.67 294.113 1101.69 293.888C1101.7 293.782 1101.69 293.675 1101.66 293.574C1101.63 293.473 1101.57 293.38 1101.5 293.301C1101.43 293.223 1101.34 293.16 1101.24 293.118C1101.15 293.076 1101.04 293.056 1100.94 293.058H1073.93C1073.71 293.065 1073.49 293.152 1073.33 293.305C1073.16 293.458 1073.06 293.665 1073.03 293.888C1073.02 293.993 1073.03 294.1 1073.07 294.202C1073.1 294.303 1073.15 294.396 1073.22 294.475C1073.29 294.553 1073.38 294.616 1073.48 294.658C1073.58 294.7 1073.68 294.72 1073.79 294.718Z" fill="white"/>
<path d="M1077.72 300.2H1095.96C1096.18 300.196 1096.4 300.111 1096.56 299.96C1096.73 299.81 1096.84 299.604 1096.86 299.381C1096.87 299.274 1096.86 299.167 1096.83 299.066C1096.79 298.965 1096.74 298.872 1096.67 298.794C1096.59 298.715 1096.51 298.653 1096.41 298.611C1096.31 298.569 1096.2 298.549 1096.1 298.551H1077.86C1077.64 298.553 1077.42 298.639 1077.25 298.792C1077.09 298.946 1076.98 299.156 1076.97 299.381C1076.96 299.485 1076.97 299.591 1077 299.691C1077.03 299.791 1077.09 299.882 1077.16 299.96C1077.23 300.037 1077.32 300.099 1077.41 300.14C1077.51 300.181 1077.61 300.202 1077.72 300.2Z" fill="white"/>
</g>
<path opacity="0.5" d="M1058.16 326.146H1109.14L1110.84 306.588H1059.87L1058.16 326.146Z" fill="white"/>
<path d="M1152.19 513.369H953.209V554.865H1152.26C1150.47 541.092 1150.45 527.147 1152.19 513.369Z" fill="#407BFF"/>
<path opacity="0.7" d="M1152.19 513.369H953.209V554.865H1152.26C1150.47 541.092 1150.45 527.147 1152.19 513.369Z" fill="white"/>
<path d="M989.464 557.049H926.925L926.292 556.405C923.328 553.443 920.978 549.927 919.374 546.057C917.77 542.187 916.944 538.039 916.944 533.849C916.944 529.66 917.77 525.512 919.374 521.642C920.978 517.772 923.328 514.255 926.292 511.294L926.925 510.661H989.464L985.74 514.385C980.581 519.549 977.683 526.55 977.683 533.849C977.683 541.149 980.581 548.15 985.74 553.314L989.464 557.049Z" fill="#407BFF"/>
<g opacity="0.3">
<path d="M989.464 557.049H926.925L926.292 556.405C923.328 553.443 920.978 549.927 919.374 546.057C917.77 542.187 916.944 538.039 916.944 533.849C916.944 529.66 917.77 525.512 919.374 521.642C920.978 517.772 923.328 514.255 926.292 511.294L926.925 510.661H989.464L985.74 514.385C980.581 519.549 977.683 526.55 977.683 533.849C977.683 541.149 980.581 548.15 985.74 553.314L989.464 557.049Z" fill="black"/>
</g>
<path d="M1154.24 557.049H985.325L985.14 556.863C979.23 551.081 975.72 543.281 975.312 535.023C975.151 530.639 975.901 526.269 977.513 522.188C979.126 518.108 981.566 514.406 984.681 511.316L985.325 510.683H1154.24C1154.82 510.683 1155.37 510.913 1155.78 511.322C1156.19 511.732 1156.42 512.287 1156.42 512.867C1156.42 513.446 1156.19 514.001 1155.78 514.411C1155.37 514.821 1154.82 515.051 1154.24 515.051H987.16C982.383 520.155 979.725 526.885 979.725 533.877C979.725 540.868 982.383 547.598 987.16 552.703H1154.24C1154.82 552.703 1155.37 552.933 1155.78 553.342C1156.19 553.752 1156.42 554.308 1156.42 554.887C1156.41 555.462 1156.18 556.012 1155.77 556.417C1155.36 556.822 1154.81 557.049 1154.24 557.049Z" fill="#407BFF"/>
<path d="M1136.58 528.788H1127.02C1126.59 528.788 1126.17 528.615 1125.87 528.308C1125.56 528.001 1125.39 527.584 1125.39 527.15C1125.39 526.716 1125.56 526.299 1125.87 525.992C1126.17 525.685 1126.59 525.512 1127.02 525.512H1136.58C1137.01 525.512 1137.43 525.685 1137.74 525.992C1138.04 526.299 1138.22 526.716 1138.22 527.15C1138.22 527.584 1138.04 528.001 1137.74 528.308C1137.43 528.615 1137.01 528.788 1136.58 528.788Z" fill="white"/>
<path d="M1114.52 528.788H1025.74C1025.31 528.788 1024.89 528.615 1024.58 528.308C1024.27 528.001 1024.1 527.584 1024.1 527.15C1024.1 526.716 1024.27 526.299 1024.58 525.992C1024.89 525.685 1025.31 525.512 1025.74 525.512H1114.52C1114.95 525.512 1115.37 525.685 1115.68 525.992C1115.99 526.299 1116.16 526.716 1116.16 527.15C1116.16 527.584 1115.99 528.001 1115.68 528.308C1115.37 528.615 1114.95 528.788 1114.52 528.788Z" fill="white"/>
<path d="M1013.73 528.788H994.072C993.638 528.788 993.221 528.615 992.914 528.308C992.607 528.001 992.434 527.584 992.434 527.15C992.434 526.716 992.607 526.299 992.914 525.992C993.221 525.685 993.638 525.512 994.072 525.512H1013.73C1014.16 525.512 1014.58 525.685 1014.89 525.992C1015.19 526.299 1015.37 526.716 1015.37 527.15C1015.37 527.584 1015.19 528.001 1014.89 528.308C1014.58 528.615 1014.16 528.788 1013.73 528.788Z" fill="white"/>
<path d="M1136.58 542.667H1052.49C1052.06 542.667 1051.64 542.495 1051.34 542.188C1051.03 541.88 1050.86 541.464 1050.86 541.029C1050.86 540.595 1051.03 540.178 1051.34 539.871C1051.64 539.564 1052.06 539.391 1052.49 539.391H1136.58C1137.01 539.391 1137.43 539.564 1137.74 539.871C1138.04 540.178 1138.22 540.595 1138.22 541.029C1138.22 541.464 1138.04 541.88 1137.74 542.188C1137.43 542.495 1137.01 542.667 1136.58 542.667Z" fill="white"/>
<path d="M1040.26 542.667H994.072C993.638 542.667 993.221 542.495 992.914 542.188C992.607 541.88 992.434 541.464 992.434 541.029C992.434 540.595 992.607 540.178 992.914 539.871C993.221 539.564 993.638 539.391 994.072 539.391H1040.26C1040.7 539.391 1041.11 539.564 1041.42 539.871C1041.73 540.178 1041.9 540.595 1041.9 541.029C1041.9 541.464 1041.73 541.88 1041.42 542.188C1041.11 542.495 1040.7 542.667 1040.26 542.667Z" fill="white"/>
<path d="M1146.92 429.602H967.832V466.948H1146.99C1145.37 454.553 1145.35 442.002 1146.92 429.602Z" fill="#407BFF"/>
<path opacity="0.8" d="M1146.92 429.602H967.832V466.948H1146.99C1145.37 454.553 1145.35 442.002 1146.92 429.602Z" fill="white"/>
<path d="M1000.46 468.914H944.168L943.589 468.335C940.923 465.67 938.809 462.506 937.366 459.024C935.924 455.542 935.181 451.809 935.181 448.04C935.181 444.271 935.924 440.539 937.366 437.056C938.809 433.574 940.923 430.41 943.589 427.745L944.168 427.167H1000.45L997.108 430.508C992.466 435.158 989.859 441.459 989.859 448.029C989.859 454.599 992.466 460.901 997.108 465.55L1000.46 468.914Z" fill="#1F61F4"/>
<path d="M1148.75 468.914H996.737L996.584 468.728C991.277 463.52 988.133 456.499 987.782 449.072C987.628 445.13 988.294 441.2 989.738 437.529C991.181 433.858 993.371 430.526 996.169 427.745L996.748 427.167H1148.75C1149.28 427.167 1149.78 427.374 1150.14 427.742C1150.51 428.111 1150.72 428.611 1150.72 429.132C1150.72 429.653 1150.51 430.153 1150.14 430.522C1149.78 430.891 1149.28 431.098 1148.75 431.098H998.375C994.084 435.689 991.697 441.739 991.697 448.024C991.697 454.308 994.084 460.358 998.375 464.95H1148.75C1149.28 464.95 1149.78 465.157 1150.14 465.525C1150.51 465.894 1150.72 466.394 1150.72 466.915C1150.72 467.176 1150.68 467.435 1150.58 467.678C1150.48 467.92 1150.34 468.14 1150.16 468.326C1149.97 468.512 1149.75 468.66 1149.51 468.761C1149.27 468.862 1149.02 468.914 1148.75 468.914Z" fill="#407BFF"/>
<g opacity="0.4">
<path d="M1148.75 468.914H996.737L996.584 468.728C991.277 463.52 988.133 456.499 987.782 449.072C987.628 445.13 988.294 441.2 989.738 437.529C991.181 433.858 993.371 430.526 996.169 427.745L996.748 427.167H1148.75C1149.28 427.167 1149.78 427.374 1150.14 427.742C1150.51 428.111 1150.72 428.611 1150.72 429.132C1150.72 429.653 1150.51 430.153 1150.14 430.522C1149.78 430.891 1149.28 431.098 1148.75 431.098H998.375C994.084 435.689 991.697 441.739 991.697 448.024C991.697 454.308 994.084 460.358 998.375 464.95H1148.75C1149.28 464.95 1149.78 465.157 1150.14 465.525C1150.51 465.894 1150.72 466.394 1150.72 466.915C1150.72 467.176 1150.68 467.435 1150.58 467.678C1150.48 467.92 1150.34 468.14 1150.16 468.326C1149.97 468.512 1149.75 468.66 1149.51 468.761C1149.27 468.862 1149.02 468.914 1148.75 468.914Z" fill="white"/>
</g>
<path d="M1132.87 443.525H1124.26C1123.87 443.525 1123.49 443.369 1123.22 443.093C1122.94 442.816 1122.79 442.441 1122.79 442.051C1122.79 441.857 1122.82 441.665 1122.9 441.486C1122.97 441.307 1123.08 441.145 1123.22 441.008C1123.35 440.871 1123.52 440.763 1123.7 440.688C1123.88 440.614 1124.07 440.576 1124.26 440.576H1132.87C1133.06 440.576 1133.25 440.614 1133.43 440.688C1133.61 440.763 1133.77 440.871 1133.91 441.008C1134.04 441.145 1134.15 441.307 1134.23 441.486C1134.3 441.665 1134.34 441.857 1134.34 442.051C1134.34 442.441 1134.18 442.816 1133.91 443.093C1133.63 443.369 1133.26 443.525 1132.87 443.525Z" fill="white"/>
<path d="M1112.96 443.525H1033.11C1032.92 443.526 1032.73 443.489 1032.55 443.415C1032.37 443.342 1032.2 443.233 1032.07 443.096C1031.93 442.959 1031.82 442.796 1031.75 442.616C1031.67 442.437 1031.64 442.244 1031.64 442.05C1031.64 441.856 1031.67 441.664 1031.75 441.485C1031.82 441.305 1031.93 441.142 1032.07 441.005C1032.2 440.868 1032.37 440.759 1032.55 440.686C1032.73 440.612 1032.92 440.575 1033.11 440.576H1112.96C1113.15 440.575 1113.34 440.612 1113.52 440.686C1113.7 440.759 1113.87 440.868 1114 441.005C1114.14 441.142 1114.25 441.305 1114.32 441.485C1114.4 441.664 1114.43 441.856 1114.43 442.05C1114.43 442.244 1114.4 442.437 1114.32 442.616C1114.25 442.796 1114.14 442.959 1114 443.096C1113.87 443.233 1113.7 443.342 1113.52 443.415C1113.34 443.489 1113.15 443.526 1112.96 443.525Z" fill="white"/>
<path d="M1022.3 443.525H1004.61C1004.42 443.526 1004.22 443.489 1004.04 443.415C1003.86 443.342 1003.7 443.233 1003.56 443.096C1003.43 442.959 1003.32 442.796 1003.25 442.616C1003.17 442.437 1003.13 442.244 1003.14 442.05C1003.13 441.856 1003.17 441.664 1003.25 441.485C1003.32 441.305 1003.43 441.142 1003.56 441.005C1003.7 440.868 1003.86 440.759 1004.04 440.686C1004.22 440.612 1004.42 440.575 1004.61 440.576H1022.3C1022.49 440.575 1022.69 440.612 1022.87 440.686C1023.05 440.759 1023.21 440.868 1023.35 441.005C1023.48 441.142 1023.59 441.305 1023.67 441.485C1023.74 441.664 1023.78 441.856 1023.77 442.05C1023.78 442.244 1023.74 442.437 1023.67 442.616C1023.59 442.796 1023.48 442.959 1023.35 443.096C1023.21 443.233 1023.05 443.342 1022.87 443.415C1022.69 443.489 1022.49 443.526 1022.3 443.525Z" fill="white"/>
<path d="M1132.87 455.973H1057.19C1057 455.975 1056.8 455.938 1056.62 455.864C1056.44 455.791 1056.28 455.682 1056.14 455.545C1056.01 455.408 1055.9 455.245 1055.83 455.065C1055.75 454.886 1055.71 454.693 1055.72 454.499C1055.71 454.305 1055.75 454.113 1055.83 453.933C1055.9 453.754 1056.01 453.591 1056.14 453.454C1056.28 453.316 1056.44 453.208 1056.62 453.134C1056.8 453.061 1057 453.024 1057.19 453.025H1132.87C1133.26 453.025 1133.63 453.18 1133.91 453.457C1134.18 453.733 1134.34 454.108 1134.34 454.499C1134.34 454.89 1134.18 455.265 1133.91 455.542C1133.63 455.818 1133.26 455.973 1132.87 455.973Z" fill="white"/>
<path d="M1046.13 455.973H1004.63C1004.44 455.978 1004.25 455.944 1004.07 455.874C1003.89 455.803 1003.72 455.698 1003.58 455.564C1003.44 455.43 1003.33 455.27 1003.26 455.093C1003.18 454.916 1003.14 454.725 1003.14 454.532C1003.13 454.338 1003.17 454.146 1003.25 453.966C1003.32 453.787 1003.43 453.624 1003.56 453.486C1003.7 453.349 1003.86 453.241 1004.04 453.167C1004.22 453.094 1004.42 453.056 1004.61 453.058H1046.11C1046.3 453.056 1046.49 453.094 1046.67 453.167C1046.85 453.241 1047.01 453.349 1047.15 453.486C1047.29 453.624 1047.4 453.787 1047.47 453.966C1047.54 454.146 1047.58 454.338 1047.58 454.532C1047.57 454.914 1047.42 455.279 1047.15 455.549C1046.88 455.818 1046.51 455.971 1046.13 455.973Z" fill="white"/>
<path d="M1153.22 471.349H974.132V508.695H1153.29C1151.67 496.3 1151.65 483.749 1153.22 471.349Z" fill="#407BFF"/>
<path opacity="0.7" d="M1153.22 471.349H974.132V508.695H1153.29C1151.67 496.3 1151.65 483.749 1153.22 471.349Z" fill="white"/>
<path d="M1006.77 510.661H950.48L949.912 510.082C947.246 507.417 945.132 504.253 943.689 500.771C942.246 497.289 941.504 493.556 941.504 489.787C941.504 486.018 942.246 482.286 943.689 478.804C945.132 475.321 947.246 472.157 949.912 469.492L950.48 468.914H1006.77L1003.42 472.266C1001.12 474.566 999.291 477.298 998.045 480.304C996.799 483.31 996.157 486.533 996.157 489.787C996.157 493.042 996.799 496.264 998.045 499.271C999.291 502.277 1001.12 505.008 1003.42 507.308L1006.77 510.661Z" fill="#407BFF"/>
<path d="M1155.07 510.661H1003.04L1002.87 510.497C997.567 505.289 994.423 498.268 994.072 490.841C993.922 486.9 994.59 482.97 996.033 479.3C997.477 475.629 999.665 472.298 1002.46 469.514L1003.04 468.935H1155.07C1155.59 468.938 1156.08 469.146 1156.45 469.514C1156.82 469.882 1157.03 470.381 1157.03 470.901C1157.03 471.421 1156.82 471.92 1156.45 472.288C1156.08 472.656 1155.59 472.864 1155.07 472.867H1004.69C1000.39 477.454 997.996 483.506 997.996 489.793C997.996 496.08 1000.39 502.131 1004.69 506.719H1155.07C1155.32 506.719 1155.58 506.77 1155.82 506.868C1156.06 506.967 1156.27 507.112 1156.46 507.294C1156.64 507.477 1156.78 507.694 1156.88 507.932C1156.98 508.171 1157.03 508.426 1157.03 508.684C1157.03 509.207 1156.82 509.708 1156.46 510.078C1156.09 510.448 1155.59 510.658 1155.07 510.661Z" fill="#407BFF"/>
<g opacity="0.3">
<path d="M1155.07 510.661H1003.04L1002.87 510.497C997.567 505.289 994.423 498.268 994.072 490.841C993.922 486.9 994.59 482.97 996.033 479.3C997.477 475.629 999.665 472.298 1002.46 469.514L1003.04 468.935H1155.07C1155.59 468.938 1156.08 469.146 1156.45 469.514C1156.82 469.882 1157.03 470.381 1157.03 470.901C1157.03 471.421 1156.82 471.92 1156.45 472.288C1156.08 472.656 1155.59 472.864 1155.07 472.867H1004.69C1000.39 477.454 997.996 483.506 997.996 489.793C997.996 496.08 1000.39 502.131 1004.69 506.719H1155.07C1155.32 506.719 1155.58 506.77 1155.82 506.868C1156.06 506.967 1156.27 507.112 1156.46 507.294C1156.64 507.477 1156.78 507.694 1156.88 507.932C1156.98 508.171 1157.03 508.426 1157.03 508.684C1157.03 509.207 1156.82 509.708 1156.46 510.078C1156.09 510.448 1155.59 510.658 1155.07 510.661Z" fill="white"/>
</g>
<path d="M1010.91 494.772H1019.52C1019.91 494.772 1020.28 494.928 1020.56 495.204C1020.83 495.48 1020.99 495.855 1020.99 496.246C1020.99 496.637 1020.83 497.01 1020.55 497.286C1020.28 497.562 1019.91 497.718 1019.52 497.721H1010.91C1010.52 497.718 1010.15 497.562 1009.87 497.286C1009.6 497.01 1009.44 496.637 1009.44 496.246C1009.44 495.855 1009.59 495.48 1009.87 495.204C1010.14 494.928 1010.52 494.772 1010.91 494.772Z" fill="white"/>
<path d="M1030.82 494.772H1110.67C1110.86 494.771 1111.05 494.808 1111.23 494.881C1111.41 494.955 1111.57 495.064 1111.71 495.201C1111.85 495.338 1111.96 495.501 1112.03 495.681C1112.1 495.86 1112.14 496.052 1112.14 496.246C1112.14 496.44 1112.1 496.632 1112.03 496.811C1111.95 496.989 1111.84 497.152 1111.71 497.289C1111.57 497.426 1111.41 497.534 1111.23 497.608C1111.05 497.683 1110.86 497.721 1110.67 497.721H1030.82C1030.62 497.721 1030.43 497.683 1030.25 497.608C1030.07 497.534 1029.91 497.426 1029.78 497.289C1029.64 497.152 1029.53 496.989 1029.46 496.811C1029.38 496.632 1029.34 496.44 1029.34 496.246C1029.34 496.052 1029.38 495.86 1029.45 495.681C1029.53 495.501 1029.64 495.338 1029.77 495.201C1029.91 495.064 1030.07 494.955 1030.25 494.881C1030.43 494.808 1030.62 494.771 1030.82 494.772Z" fill="white"/>
<path d="M1121.48 494.772H1139.17C1139.36 494.771 1139.55 494.808 1139.73 494.881C1139.91 494.955 1140.07 495.064 1140.21 495.201C1140.35 495.338 1140.46 495.501 1140.53 495.681C1140.6 495.86 1140.64 496.052 1140.64 496.246C1140.64 496.44 1140.6 496.632 1140.53 496.811C1140.45 496.989 1140.35 497.152 1140.21 497.289C1140.07 497.426 1139.91 497.534 1139.73 497.608C1139.55 497.683 1139.36 497.721 1139.17 497.721H1121.48C1121.28 497.722 1121.09 497.685 1120.91 497.612C1120.73 497.538 1120.56 497.43 1120.42 497.293C1120.28 497.157 1120.17 496.994 1120.1 496.814C1120.02 496.634 1119.98 496.441 1119.98 496.246C1119.98 496.051 1120.02 495.857 1120.09 495.677C1120.17 495.497 1120.28 495.333 1120.42 495.196C1120.56 495.059 1120.72 494.951 1120.91 494.878C1121.09 494.805 1121.28 494.769 1121.48 494.772Z" fill="white"/>
<path d="M1010.91 482.323H1086.59C1086.78 482.322 1086.97 482.359 1087.15 482.433C1087.33 482.506 1087.49 482.615 1087.63 482.752C1087.77 482.889 1087.88 483.052 1087.95 483.232C1088.02 483.411 1088.06 483.604 1088.06 483.798C1088.06 483.991 1088.02 484.183 1087.95 484.362C1087.87 484.541 1087.77 484.703 1087.63 484.84C1087.49 484.977 1087.33 485.086 1087.15 485.16C1086.97 485.234 1086.78 485.272 1086.59 485.272H1010.91C1010.52 485.269 1010.15 485.113 1009.87 484.837C1009.6 484.561 1009.44 484.188 1009.44 483.798C1009.44 483.407 1009.59 483.032 1009.87 482.755C1010.14 482.479 1010.52 482.323 1010.91 482.323Z" fill="white"/>
<path d="M1097.65 482.323H1139.14C1139.34 482.322 1139.53 482.359 1139.71 482.433C1139.89 482.506 1140.05 482.615 1140.19 482.752C1140.33 482.889 1140.44 483.052 1140.51 483.232C1140.58 483.411 1140.62 483.604 1140.62 483.798C1140.62 484.189 1140.46 484.564 1140.19 484.84C1139.91 485.117 1139.54 485.272 1139.14 485.272H1097.65C1097.45 485.272 1097.26 485.234 1097.08 485.16C1096.91 485.086 1096.74 484.977 1096.61 484.84C1096.47 484.703 1096.36 484.541 1096.29 484.362C1096.21 484.183 1096.17 483.991 1096.17 483.798C1096.17 483.604 1096.21 483.411 1096.28 483.232C1096.36 483.052 1096.47 482.889 1096.6 482.752C1096.74 482.615 1096.9 482.506 1097.08 482.433C1097.26 482.359 1097.45 482.322 1097.65 482.323Z" fill="white"/>
</g>
</g>
<defs>
<linearGradient id="paint0_linear_11_885" x1="437.601" y1="448" x2="1672.69" y2="999.963" gradientUnits="userSpaceOnUse">
<stop stop-color="#95BEFF"/>
<stop offset="1" stop-color="#0040E6"/>
</linearGradient>
<linearGradient id="paint1_linear_11_885" x1="589.55" y1="559.763" x2="613.985" y2="568.436" gradientUnits="userSpaceOnUse">
<stop stop-color="#95BEFF"/>
<stop offset="1" stop-color="#0040E6"/>
</linearGradient>
<clipPath id="clip0_11_885">
<rect width="1440" height="700" fill="white"/>
</clipPath>
<clipPath id="clip1_11_885">
<rect width="452" height="448" fill="white" transform="translate(827 151)"/>
</clipPath>
</defs>
</svg>
